<svg xmlns="http://www.w3.org/2000/svg" viewBox="0 0 128.78 128.78"><defs><style>.cls-1{fill:#fff;}</style></defs><g id="Layer_2" data-name="Layer 2"><g id="Layer_1-2" data-name="Layer 1"><rect x="15.29" y="24.74" width="101.95" height="76.98" rx="9.98"/><path class="cls-1" d="M51.83,51C51.83,45,47.69,45,47.69,45h-17V58h16C49.39,58,51.83,57.1,51.83,51Z"/><path class="cls-1" d="M47.69,67h-17V82.6H46.91c2.44-.07,6.94-.83,6.94-7.59C53.85,66.91,47.69,67,47.69,67Z"/><path class="cls-1" d="M91.23,58c-9,0-10.29,9-10.29,9h19.19S100.25,58,91.23,58Z"/><path class="cls-1" d="M64.39,0a64.39,64.39,0,1,0,64.39,64.39A64.39,64.39,0,0,0,64.39,0Zm14,38h24.1V45.2H78.43ZM66.25,75.74C66.25,93.57,47.69,93,47.69,93H17.3V34.57H47.69c9.24,0,16.53,5.1,16.53,15.55s-8.91,11.11-8.91,11.11C67.06,61.23,66.25,75.74,66.25,75.74ZM91.34,85c9.71,0,9.37-6.29,9.37-6.29H111C111,95.34,91,94.2,91,94.2c-24,0-22.45-22.33-22.45-22.33s0-22.44,22.45-22.44c23.64,0,20.33,25.35,20.33,25.35H81.06C81.06,85.64,91.34,85,91.34,85Z"/></g></g></svg>