<svg width="1192" height="613" viewBox="0 0 1192 613" fill="none" xmlns="http://www.w3.org/2000/svg">
<g clip-path="url(#clip0)">
<mask id="mask0" mask-type="alpha" maskUnits="userSpaceOnUse" x="-10" y="-9" width="1235" height="615">
<path d="M1224.62 -8.15096H-9.57166V605.664H1224.62V-8.15096Z" fill="url(#paint0_radial)"/>
</mask>
<g mask="url(#mask0)">
<g opacity="0.02">
<path opacity="0.02" d="M1172.47 96.8836L1192 106.054V105.963L1172.5 96.8157C1172.47 96.8157 1172.47 96.8157 1172.44 96.8157C1172.44 96.8157 1172.44 96.8157 1172.44 96.8384C1172.42 96.861 1172.44 96.8836 1172.47 96.8836Z" fill="white" fill-opacity="0.5"/>
</g>
<g opacity="0.02">
<path opacity="0.02" d="M1172.03 238.394L1192 228.228V228.137L1171.98 238.326C1171.95 238.326 1171.95 238.349 1171.98 238.371C1171.98 238.394 1172 238.394 1172.03 238.394Z" fill="white" fill-opacity="0.5"/>
</g>
<g opacity="0.12">
<path opacity="0.12" d="M1171.78 238.1C1171.84 238.077 1171.92 238.054 1171.98 238.032C1172.2 238.032 1172.36 238.168 1172.36 238.326L1177.31 338.402C1177.31 338.583 1177.15 338.719 1176.95 338.719C1176.73 338.719 1176.57 338.583 1176.57 338.425L1171.62 238.349C1171.62 238.258 1171.67 238.168 1171.78 238.1Z" fill="white" fill-opacity="0.5"/>
</g>
<g opacity="0.03">
<path opacity="0.03" d="M1176.87 338.379C1176.9 338.357 1176.98 338.357 1177.01 338.379C1177.04 338.402 1177.04 338.47 1177.01 338.493L1077.72 418.033C1077.69 418.078 1077.61 418.055 1077.58 418.033C1077.55 418.01 1077.55 417.942 1077.58 417.92L1176.87 338.379Z" fill="white" fill-opacity="0.5"/>
</g>
<g opacity="0.28">
<path opacity="0.28" d="M1176.43 337.836C1176.54 337.768 1176.65 337.745 1176.79 337.723C1177.28 337.655 1177.75 337.904 1177.83 338.312L1191.64 399.512C1191.72 399.919 1191.42 400.304 1190.93 400.372C1190.43 400.44 1189.96 400.191 1189.88 399.784L1176.07 338.583C1175.99 338.289 1176.16 337.995 1176.43 337.836Z" fill="white" fill-opacity="0.5"/>
</g>
<g opacity="0.18">
<path opacity="0.18" d="M1077.3 417.58C1077.36 417.535 1077.44 417.512 1077.52 417.489L1190.65 399.15C1190.98 399.104 1191.28 399.263 1191.37 399.535C1191.42 399.806 1191.23 400.055 1190.9 400.123L1077.77 418.463C1077.44 418.508 1077.14 418.35 1077.06 418.078C1077 417.897 1077.11 417.693 1077.3 417.58Z" fill="white" fill-opacity="0.5"/>
</g>
<g opacity="0.04">
<path opacity="0.04" d="M929.247 0L954.992 72.1589C955.019 72.2042 955.074 72.2495 955.129 72.2269C955.184 72.2042 955.239 72.1589 955.212 72.1137L929.495 0H929.247Z" fill="white" fill-opacity="0.5"/>
</g>
<g opacity="0.03">
<path opacity="0.03" d="M955.047 72.0684H955.074L1028.92 55.9475C1028.98 55.9475 1029.01 55.9702 1029.03 55.9928C1029.03 56.0381 1029.01 56.0834 1028.98 56.0834L955.129 72.2043C955.074 72.2043 955.047 72.1816 955.019 72.159C955.019 72.1137 955.019 72.0684 955.047 72.0684Z" fill="white" fill-opacity="0.5"/>
</g>
<g opacity="0.19">
<path opacity="0.19" d="M954.744 71.7061C954.799 71.6834 954.854 71.6608 954.909 71.6381C955.239 71.5476 955.569 71.7061 955.679 71.9551L984.834 145.065C984.944 145.337 984.779 145.608 984.449 145.699C984.119 145.79 983.789 145.631 983.679 145.382L954.524 72.2721C954.414 72.0683 954.524 71.8419 954.744 71.7061Z" fill="white" fill-opacity="0.5"/>
</g>
<g opacity="0.28">
<path opacity="0.28" d="M983.707 144.59C984.119 144.34 984.725 144.431 985.027 144.771L1012.83 177.148C1013.14 177.488 1013.03 177.986 1012.61 178.235C1012.2 178.484 1011.6 178.394 1011.29 178.054L983.487 145.676C983.184 145.314 983.294 144.839 983.707 144.59Z" fill="white" fill-opacity="0.5"/>
</g>
<g opacity="0.09">
<path opacity="0.09" d="M608.35 38.0833C608.487 38.0154 608.652 37.9927 608.79 38.0833C608.982 38.1739 609.01 38.3776 608.9 38.5361L587.171 65.1174C587.061 65.2759 586.814 65.2985 586.621 65.208C586.428 65.1174 586.401 64.9136 586.511 64.7552L608.24 38.1739C608.295 38.1286 608.322 38.1059 608.35 38.0833Z" fill="white" fill-opacity="0.5"/>
</g>
<g opacity="0.03">
<path opacity="0.03" d="M608.515 38.2644C608.515 38.2644 608.542 38.2418 608.57 38.2418L652.715 28.936C652.797 28.9134 652.852 28.9587 652.88 29.004C652.907 29.0719 652.852 29.1172 652.797 29.1398L608.652 38.4455C608.57 38.4682 608.515 38.4229 608.487 38.3776C608.432 38.3323 608.46 38.287 608.515 38.2644Z" fill="white" fill-opacity="0.5"/>
</g>
<g opacity="0.03">
<path opacity="0.03" d="M549.985 26.8304C550.012 26.8078 550.04 26.8078 550.067 26.8078L652.742 28.9361C652.797 28.9361 652.852 28.9813 652.852 29.0266C652.852 29.0719 652.797 29.1172 652.742 29.1172L550.067 26.9889C550.012 26.9889 549.957 26.9436 549.957 26.8983C549.93 26.8757 549.957 26.853 549.985 26.8304Z" fill="white" fill-opacity="0.5"/>
</g>
<g opacity="0.18">
<path opacity="0.18" d="M586.456 64.4382L652.357 28.5512C652.687 28.37 653.127 28.4379 653.32 28.7096C653.54 28.9813 653.457 29.321 653.127 29.5021C653.127 29.5021 653.127 29.5021 653.1 29.5021L587.226 65.3665C586.896 65.5476 586.456 65.4797 586.263 65.208C586.071 64.9816 586.153 64.6193 586.456 64.4382Z" fill="white" fill-opacity="0.5"/>
</g>
<g opacity="0.14">
<path opacity="0.14" d="M652.412 28.6643C652.605 28.5511 652.907 28.5511 653.1 28.687L708.797 68.491C709.017 68.6495 709.044 68.9438 708.852 69.1476C708.659 69.3514 708.302 69.3514 708.054 69.1929L652.357 29.3888C652.137 29.2304 652.11 28.936 652.302 28.7322C652.33 28.7096 652.385 28.687 652.412 28.6643Z" fill="white" fill-opacity="0.5"/>
</g>
<g opacity="0.01">
<path opacity="0.01" d="M708.384 68.8306C708.412 68.808 708.439 68.8306 708.467 68.8306C708.494 68.8533 708.467 68.8759 708.467 68.8986L607.855 128.31C607.827 128.333 607.8 128.31 607.772 128.31C607.745 128.288 607.772 128.265 607.772 128.242L708.384 68.8306Z" fill="white" fill-opacity="0.5"/>
</g>
<g opacity="0.19">
<path opacity="0.19" d="M707.999 68.3552C708.329 68.174 708.769 68.2193 709.017 68.4684L760.451 121.699C760.698 121.971 760.643 122.356 760.341 122.559C760.038 122.763 759.543 122.718 759.296 122.469L707.862 69.2382C707.614 68.9665 707.669 68.5816 707.972 68.3778C707.972 68.3778 707.972 68.3552 707.999 68.3552Z" fill="white" fill-opacity="0.5"/>
</g>
<g opacity="0.26">
<path opacity="0.26" d="M759.296 121.405C759.681 121.178 760.231 121.201 760.588 121.495L805.751 159.827C806.136 160.144 806.136 160.665 805.724 160.982C805.338 161.299 804.706 161.299 804.321 160.959L759.131 122.65C758.746 122.333 758.746 121.812 759.158 121.495C759.213 121.472 759.241 121.45 759.296 121.405Z" fill="white" fill-opacity="0.5"/>
</g>
<g opacity="0.02">
<path opacity="0.02" d="M759.818 122.039C759.846 122.016 759.873 122.016 759.901 122.039L844.918 163.88C844.945 163.903 844.973 163.926 844.945 163.971C844.918 163.994 844.89 164.016 844.835 163.994L759.818 122.152C759.791 122.129 759.791 122.084 759.818 122.039C759.818 122.039 759.791 122.039 759.818 122.039Z" fill="white" fill-opacity="0.5"/>
</g>
<g opacity="0.29">
<path opacity="0.29" d="M804.403 159.692C804.623 159.578 804.871 159.51 805.146 159.533L845 163.042C845.606 163.088 846.046 163.541 845.991 164.039C845.936 164.537 845.386 164.899 844.78 164.854L804.926 161.344C804.321 161.299 803.881 160.846 803.936 160.348C803.963 160.054 804.156 159.827 804.403 159.692Z" fill="white" fill-opacity="0.5"/>
</g>
<g opacity="0.04">
<path opacity="0.04" d="M599.631 292.757C599.658 292.734 599.713 292.734 599.768 292.734C599.878 292.734 599.961 292.824 599.933 292.915L593.167 341.64C593.167 341.73 593.057 341.798 592.947 341.776C592.837 341.776 592.754 341.685 592.782 341.595L599.548 292.87C599.576 292.824 599.603 292.779 599.631 292.757Z" fill="white" fill-opacity="0.5"/>
</g>
<g opacity="0.01">
<path opacity="0.01" d="M518.629 276.251C518.657 276.251 518.657 276.251 518.629 276.251L599.741 292.87C599.768 292.87 599.768 292.892 599.768 292.892C599.768 292.915 599.741 292.915 599.741 292.915L518.657 276.296C518.629 276.296 518.629 276.273 518.629 276.251Z" fill="white" fill-opacity="0.5"/>
</g>
<g opacity="0.14">
<path opacity="0.14" d="M535.737 277.677C535.875 277.587 536.095 277.564 536.26 277.609L599.906 292.394C600.236 292.462 600.428 292.756 600.346 293.028C600.263 293.3 599.906 293.458 599.576 293.39L535.93 278.605C535.6 278.538 535.407 278.243 535.49 277.971C535.545 277.836 535.627 277.745 535.737 277.677Z" fill="white" fill-opacity="0.5"/>
</g>
<g opacity="0.02">
<path opacity="0.02" d="M599.686 292.824C599.713 292.802 599.768 292.802 599.796 292.824L657.693 317.323C657.748 317.345 657.776 317.391 657.748 317.436C657.721 317.481 657.666 317.504 657.611 317.481L599.713 292.983C599.658 292.96 599.631 292.915 599.658 292.87C599.658 292.847 599.686 292.824 599.686 292.824Z" fill="white" fill-opacity="0.5"/>
</g>
<g opacity="0.19">
<path opacity="0.19" d="M599.246 292.304C599.383 292.236 599.521 292.191 599.686 292.168L622.68 291.194C623.147 291.172 623.56 291.466 623.587 291.874C623.615 292.258 623.257 292.598 622.762 292.621L599.768 293.594C599.301 293.617 598.888 293.323 598.861 292.915C598.861 292.666 599.026 292.44 599.246 292.304Z" fill="white" fill-opacity="0.5"/>
</g>
<g opacity="0.02">
<path opacity="0.02" d="M518.602 276.205C518.629 276.205 518.657 276.183 518.657 276.183L622.735 291.828C622.79 291.828 622.817 291.873 622.817 291.919C622.817 291.964 622.762 291.987 622.707 291.987L518.629 276.341C518.574 276.341 518.547 276.296 518.547 276.251C518.574 276.228 518.602 276.228 518.602 276.205Z" fill="white" fill-opacity="0.5"/>
</g>
<g opacity="0.24">
<path opacity="0.24" d="M622.157 291.217C622.542 290.99 623.092 291.013 623.45 291.285L658.353 316.757C658.793 317.074 658.821 317.617 658.436 317.957C658.051 318.319 657.391 318.342 656.978 318.025L622.075 292.553C621.634 292.236 621.607 291.692 621.992 291.353C622.02 291.307 622.075 291.262 622.157 291.217Z" fill="white" fill-opacity="0.5"/>
</g>
<g opacity="0.04">
<path opacity="0.04" d="M622.652 291.806C622.707 291.76 622.79 291.76 622.872 291.806L701.453 343.678C701.536 343.723 701.536 343.813 701.481 343.881C701.426 343.949 701.316 343.949 701.233 343.904L622.652 292.032C622.57 291.987 622.57 291.896 622.625 291.828C622.625 291.806 622.625 291.806 622.652 291.806Z" fill="white" fill-opacity="0.5"/>
</g>
<g opacity="0.03">
<path opacity="0.03" d="M657.556 317.3C657.583 317.277 657.638 317.277 657.666 317.277L749.284 343.972C749.339 343.995 749.366 344.04 749.366 344.085C749.339 344.13 749.284 344.153 749.229 344.153L657.611 317.459C657.556 317.436 657.528 317.391 657.528 317.345C657.528 317.323 657.556 317.323 657.556 317.3Z" fill="white" fill-opacity="0.5"/>
</g>
<g opacity="0.02">
<path opacity="0.02" d="M701.261 343.723C701.288 343.7 701.316 343.7 701.343 343.7L793.594 362.04C793.649 362.04 793.676 362.085 793.649 362.131C793.649 362.176 793.594 362.198 793.539 362.176L701.288 343.836C701.233 343.836 701.206 343.791 701.233 343.746C701.233 343.746 701.261 343.745 701.261 343.723Z" fill="white" fill-opacity="0.5"/>
</g>
<g opacity="0.01">
<path opacity="0.01" d="M749.229 344.04H749.256L793.566 362.108C793.594 362.108 793.594 362.131 793.566 362.131C793.566 362.153 793.539 362.153 793.539 362.131L749.229 344.063C749.229 344.085 749.229 344.063 749.229 344.04C749.229 344.04 749.229 344.063 749.229 344.04Z" fill="white" fill-opacity="0.5"/>
</g>
<g opacity="0.12">
<path opacity="0.12" d="M494.893 453.897C495.003 453.829 495.14 453.807 495.305 453.829C495.608 453.875 495.828 454.101 495.773 454.35L489.337 491.211C489.282 491.46 489.007 491.641 488.704 491.596C488.402 491.55 488.181 491.324 488.236 491.075L494.673 454.214C494.673 454.078 494.755 453.965 494.893 453.897Z" fill="white" fill-opacity="0.5"/>
</g>
<g opacity="0.22">
<path opacity="0.22" d="M494.645 453.625C494.948 453.467 495.333 453.422 495.663 453.58L506.692 458.471C507.16 458.675 507.352 459.173 507.077 459.558C506.83 459.942 506.225 460.101 505.757 459.875L494.728 454.984C494.26 454.78 494.067 454.282 494.343 453.897C494.425 453.784 494.535 453.693 494.645 453.625Z" fill="white" fill-opacity="0.5"/>
</g>
<g opacity="0.01">
<path opacity="0.01" d="M495.168 454.237C495.195 454.214 495.223 454.237 495.25 454.259L527.513 497.618C527.541 497.641 527.513 497.663 527.486 497.686C527.458 497.709 527.431 497.686 527.403 497.663L495.14 454.305C495.14 454.282 495.14 454.259 495.168 454.237Z" fill="white" fill-opacity="0.5"/>
</g>
<g opacity="0.21">
<path opacity="0.21" d="M505.702 458.561C505.757 458.539 505.785 458.516 505.84 458.493C506.307 458.312 506.83 458.493 507.05 458.856L528.283 497.347C528.503 497.731 528.283 498.162 527.843 498.343C527.376 498.524 526.853 498.343 526.633 497.981L505.399 459.49C505.207 459.15 505.344 458.765 505.702 458.561Z" fill="white" fill-opacity="0.5"/>
</g>
<g opacity="0.17">
<path opacity="0.17" d="M527.073 497.165C527.101 497.143 527.101 497.143 527.128 497.143C527.458 496.984 527.898 497.097 528.091 497.369L566.625 554.177C566.818 554.449 566.68 554.788 566.35 554.969C566.02 555.128 565.58 555.015 565.387 554.743L526.853 497.935C526.688 497.663 526.771 497.346 527.073 497.165Z" fill="white" fill-opacity="0.5"/>
</g>
<g opacity="0.01">
<path opacity="0.01" d="M565.992 554.426L655.245 509.12C655.273 509.097 655.3 509.12 655.328 509.143C655.355 509.165 655.328 509.188 655.3 509.211L566.047 554.494C566.02 554.517 565.992 554.494 565.965 554.471C565.937 554.471 565.965 554.449 565.992 554.426Z" fill="white" fill-opacity="0.5"/>
</g>
<g opacity="0.14">
<path opacity="0.14" d="M565.69 554.086C565.91 553.973 566.185 553.973 566.405 554.132L631.041 604.713C631.261 604.894 631.261 605.189 631.069 605.37C630.849 605.551 630.491 605.574 630.271 605.392L565.635 554.811C565.415 554.63 565.415 554.336 565.607 554.154C565.635 554.132 565.662 554.109 565.69 554.086Z" fill="white" fill-opacity="0.5"/>
</g>
<g opacity="0.13">
<path opacity="0.13" d="M362.925 429.218C363.172 429.082 363.503 429.082 363.75 429.263L371.066 434.765C371.341 434.969 371.369 435.308 371.121 435.535C370.874 435.761 370.461 435.784 370.186 435.58L362.87 430.078C362.595 429.874 362.567 429.535 362.815 429.308C362.87 429.263 362.897 429.24 362.925 429.218Z" fill="white" fill-opacity="0.5"/>
</g>
<g opacity="0.16">
<path opacity="0.16" d="M362.87 429.15C363.035 429.059 363.255 429.014 363.503 429.059C363.915 429.15 364.163 429.489 364.053 429.829L356.269 455.958C356.159 456.297 355.746 456.501 355.334 456.41C354.921 456.32 354.674 455.98 354.784 455.641L362.567 429.512C362.622 429.354 362.732 429.24 362.87 429.15Z" fill="white" fill-opacity="0.5"/>
</g>
<g opacity="0.11">
<path opacity="0.11" d="M355.251 455.437C355.334 455.391 355.471 455.346 355.581 455.369C355.856 455.391 356.049 455.595 356.021 455.822L348.622 515.845C348.595 516.071 348.347 516.23 348.072 516.207C347.797 516.184 347.605 515.981 347.632 515.754L355.031 455.731C355.059 455.618 355.141 455.505 355.251 455.437Z" fill="white" fill-opacity="0.5"/>
</g>
<g opacity="0.02">
<path opacity="0.02" d="M247.24 514.418C247.24 514.418 247.268 514.418 247.295 514.396L348.155 515.731C348.182 515.731 348.237 515.754 348.237 515.799C348.237 515.822 348.21 515.867 348.155 515.867L247.295 514.531C247.268 514.531 247.213 514.509 247.213 514.463C247.213 514.441 247.213 514.418 247.24 514.418Z" fill="white" fill-opacity="0.5"/>
</g>
<g opacity="0.02">
<path opacity="0.02" d="M348.072 515.731C348.1 515.731 348.1 515.709 348.127 515.709C348.182 515.709 348.21 515.754 348.21 515.777L343.369 608.087C343.369 608.132 343.314 608.155 343.287 608.155C343.232 608.155 343.204 608.109 343.204 608.087L348.045 515.777C348.045 515.777 348.045 515.754 348.072 515.731Z" fill="white" fill-opacity="0.5"/>
</g>
<g opacity="0.18">
<path opacity="0.18" d="M1176.95 402.704C1177.2 402.84 1177.53 402.772 1177.7 402.569L1192 384.161V382.508L1176.79 402.093C1176.62 402.297 1176.71 402.569 1176.95 402.704Z" fill="white" fill-opacity="0.5"/>
</g>
<g opacity="0.01">
<path opacity="0.01" d="M1082.06 341.617C1082.09 341.617 1082.09 341.617 1082.12 341.617L1177.26 402.297C1177.28 402.319 1177.28 402.342 1177.26 402.342C1177.23 402.365 1177.2 402.365 1177.2 402.342L1082.06 341.663C1082.06 341.663 1082.06 341.64 1082.06 341.617Z" fill="white" fill-opacity="0.5"/>
</g>
<g opacity="0.1">
<path opacity="0.1" d="M1177.09 402.161C1177.2 402.093 1177.37 402.116 1177.45 402.206C1177.53 402.297 1177.5 402.433 1177.39 402.501L1087.21 456.637C1087.1 456.705 1086.93 456.682 1086.85 456.592C1086.77 456.501 1086.79 456.365 1086.9 456.297L1177.09 402.161Z" fill="white" fill-opacity="0.5"/>
</g>
<g opacity="0.49">
<path opacity="0.49" d="M1176.43 401.368C1176.98 401.052 1177.78 401.097 1178.27 401.504C1178.83 401.957 1178.83 402.727 1178.27 403.18L1118.7 452.108C1118.15 452.561 1117.21 452.561 1116.66 452.108C1116.11 451.656 1116.11 450.886 1116.66 450.433L1176.24 401.504C1176.29 401.436 1176.35 401.414 1176.43 401.368Z" fill="white" fill-opacity="0.5"/>
</g>
<g opacity="0.47">
<path opacity="0.47" d="M1086.3 455.595C1086.44 455.505 1086.6 455.459 1086.79 455.414L1117.43 450.207C1118.15 450.093 1118.84 450.456 1118.97 451.044C1119.11 451.633 1118.67 452.199 1117.96 452.312L1087.32 457.52C1086.6 457.633 1085.91 457.271 1085.78 456.682C1085.67 456.252 1085.89 455.822 1086.3 455.595Z" fill="white" fill-opacity="0.5"/>
</g>
<g opacity="0.15">
<path opacity="0.15" d="M1077.39 417.693C1077.44 417.671 1077.5 417.648 1077.55 417.625C1077.8 417.58 1078.02 417.716 1078.08 417.92L1087.48 456.388C1087.54 456.592 1087.37 456.773 1087.12 456.818C1086.88 456.863 1086.66 456.727 1086.6 456.524L1077.19 418.055C1077.17 417.92 1077.25 417.784 1077.39 417.693Z" fill="white" fill-opacity="0.5"/>
</g>
<g opacity="0.09">
<path opacity="0.09" d="M968.304 464.403L968.332 464.38L1077.5 417.761C1077.64 417.693 1077.83 417.738 1077.91 417.874C1077.99 417.988 1077.94 418.169 1077.77 418.214L968.607 464.833C968.469 464.901 968.277 464.856 968.194 464.72C968.139 464.629 968.194 464.471 968.304 464.403Z" fill="white" fill-opacity="0.5"/>
</g>
<g opacity="0.3">
<path opacity="0.3" d="M1006.4 1.67548C1006.45 1.6302 1006.54 1.60756 1006.62 1.58491C1007.09 1.44906 1007.58 1.65284 1007.75 2.03775L1029.8 55.7664C1029.97 56.1513 1029.72 56.5588 1029.25 56.6947C1028.79 56.8305 1028.29 56.6268 1028.13 56.2419L1006.07 2.51322C1005.96 2.19624 1006.1 1.85661 1006.4 1.67548Z" fill="white" fill-opacity="0.5"/>
</g>
<g opacity="0.06">
<path opacity="0.06" d="M1028.87 55.8796C1028.9 55.8569 1028.95 55.8569 1029.01 55.8569C1029.09 55.8796 1029.14 55.9475 1029.12 56.0154L982.304 179.05C982.277 179.118 982.194 179.163 982.111 179.141C982.029 179.118 981.974 179.05 982.001 178.982L1028.81 55.9475C1028.81 55.9248 1028.84 55.9022 1028.87 55.8796Z" fill="white" fill-opacity="0.5"/>
</g>
<g opacity="0.08">
<path opacity="0.08" d="M898.525 135.986C898.607 135.94 898.69 135.94 898.772 135.986L982.276 178.869C982.386 178.937 982.414 179.05 982.359 179.141C982.304 179.231 982.139 179.254 982.029 179.209L898.525 136.303C898.415 136.235 898.387 136.122 898.442 136.031C898.47 136.031 898.497 136.008 898.525 135.986Z" fill="white" fill-opacity="0.5"/>
</g>
<g opacity="0.23">
<path opacity="0.23" d="M981.754 178.575C981.919 178.461 982.167 178.439 982.387 178.507C982.744 178.62 982.937 178.937 982.799 179.231L946.218 263.3C946.08 263.594 945.695 263.753 945.338 263.639C944.98 263.526 944.788 263.209 944.925 262.915L981.506 178.846C981.534 178.733 981.644 178.643 981.754 178.575Z" fill="white" fill-opacity="0.5"/>
</g>
<g opacity="0.32">
<path opacity="0.32" d="M944.98 262.439C945.228 262.303 945.53 262.258 945.833 262.326C946.355 262.462 946.63 262.915 946.465 263.345L929.055 308.492C928.89 308.923 928.34 309.149 927.817 309.013C927.295 308.877 927.02 308.424 927.185 307.994L944.595 262.847C944.678 262.688 944.815 262.53 944.98 262.439Z" fill="white" fill-opacity="0.5"/>
</g>
<g opacity="0.24">
<path opacity="0.24" d="M927.707 307.745C927.955 307.587 928.312 307.587 928.587 307.745C928.917 307.949 929 308.334 928.752 308.628L928.01 309.466C927.762 309.738 927.295 309.806 926.937 309.602C926.607 309.398 926.524 309.013 926.772 308.719L927.515 307.881C927.57 307.836 927.652 307.791 927.707 307.745Z" fill="white" fill-opacity="0.5"/>
</g>
<g opacity="0.14">
<path opacity="0.14" d="M764.412 2.10571C764.604 1.9925 764.852 2.01514 765.017 2.15099C765.209 2.30949 765.209 2.55854 765.017 2.69439L688.003 64.891C687.811 65.0269 687.508 65.0495 687.343 64.891C687.151 64.7325 687.151 64.4835 687.343 64.3476L764.357 2.15099C764.357 2.12835 764.384 2.12835 764.412 2.10571Z" fill="white" fill-opacity="0.5"/>
</g>
<g opacity="0.06">
<path opacity="0.06" d="M687.536 64.4834C687.618 64.4381 687.728 64.4381 687.783 64.5061L769.912 129.827C769.995 129.895 769.995 130.008 769.912 130.076C769.83 130.144 769.692 130.144 769.61 130.076L687.481 64.7551C687.398 64.6872 687.398 64.574 687.481 64.5061C687.536 64.4834 687.536 64.4834 687.536 64.4834Z" fill="white" fill-opacity="0.5"/>
</g>
<g opacity="0.05">
<path opacity="0.05" d="M769.72 129.827C769.747 129.805 769.775 129.805 769.803 129.805C769.885 129.805 769.968 129.873 769.968 129.94L768.015 235.36C768.015 235.428 767.932 235.496 767.85 235.496C767.767 235.496 767.685 235.428 767.685 235.36L769.637 129.94C769.637 129.895 769.665 129.85 769.72 129.827Z" fill="white" fill-opacity="0.5"/>
</g>
<g opacity="0.13">
<path opacity="0.13" d="M767.575 235.066C767.63 235.02 767.712 234.998 767.795 234.998C768.042 234.975 768.235 235.134 768.262 235.337L774.066 315.421C774.066 315.625 773.901 315.783 773.653 315.806C773.406 315.828 773.213 315.67 773.186 315.466L767.382 235.383C767.382 235.247 767.465 235.134 767.575 235.066Z" fill="white" fill-opacity="0.5"/>
</g>
<g opacity="0.13">
<path opacity="0.13" d="M549.737 26.5587C549.957 26.4228 550.287 26.4681 550.48 26.6492L587.281 64.6419C587.474 64.8457 587.419 65.1174 587.199 65.2759C586.951 65.4344 586.621 65.3891 586.428 65.208L549.627 27.2153C549.435 27.0115 549.462 26.7172 549.737 26.5587C549.737 26.5587 549.71 26.5587 549.737 26.5587Z" fill="white" fill-opacity="0.5"/>
</g>
<g opacity="0.05">
<path opacity="0.05" d="M586.731 64.7778C586.758 64.7778 586.758 64.7552 586.786 64.7552C586.896 64.7325 587.006 64.7778 587.034 64.8684L607.965 128.22C607.992 128.31 607.937 128.401 607.827 128.423C607.717 128.446 607.607 128.401 607.58 128.31L586.648 64.9589C586.648 64.891 586.676 64.8231 586.731 64.7778Z" fill="white" fill-opacity="0.5"/>
</g>
<g opacity="0.14">
<path opacity="0.14" d="M541.238 109.405C541.376 109.337 541.541 109.291 541.733 109.337L607.992 127.835C608.267 127.925 608.432 128.174 608.322 128.401C608.24 128.627 607.91 128.763 607.635 128.673L541.376 110.174C541.101 110.084 540.936 109.835 541.046 109.608C541.073 109.54 541.128 109.472 541.238 109.405Z" fill="white" fill-opacity="0.5"/>
</g>
<g opacity="0.04">
<path opacity="0.04" d="M607.717 128.174C607.745 128.152 607.772 128.152 607.772 128.152C607.855 128.152 607.937 128.197 607.937 128.265L620.122 217.541C620.122 217.609 620.067 217.654 619.984 217.677C619.902 217.677 619.819 217.631 619.819 217.564L607.635 128.288C607.635 128.242 607.662 128.197 607.717 128.174Z" fill="white" fill-opacity="0.5"/>
</g>
<g opacity="0.02">
<path opacity="0.02" d="M619.929 217.496C619.957 217.496 619.957 217.473 619.984 217.473C620.039 217.473 620.067 217.496 620.067 217.541L624.605 316.44C624.605 316.485 624.577 316.508 624.522 316.508C624.467 316.508 624.44 316.485 624.44 316.44L619.902 217.541C619.902 217.518 619.929 217.496 619.929 217.496Z" fill="white" fill-opacity="0.5"/>
</g>
<g opacity="0.02">
<path opacity="0.02" d="M624.495 316.372C624.495 316.372 624.522 316.349 624.55 316.349C624.605 316.349 624.633 316.372 624.633 316.417L632.141 416.086C632.141 416.131 632.114 416.153 632.059 416.153C632.004 416.153 631.976 416.131 631.976 416.086L624.467 316.417C624.44 316.417 624.467 316.394 624.495 316.372Z" fill="white" fill-opacity="0.5"/>
</g>
<g opacity="0.04">
<path opacity="0.04" d="M631.976 416.018C632.004 416.018 632.004 415.995 632.031 415.995C632.114 415.972 632.196 416.018 632.196 416.086L655.41 509.143C655.438 509.211 655.383 509.279 655.3 509.279C655.218 509.301 655.135 509.256 655.135 509.188L631.921 416.131C631.894 416.086 631.921 416.04 631.976 416.018Z" fill="white" fill-opacity="0.5"/>
</g>
<g opacity="0.14">
<path opacity="0.14" d="M654.943 508.78C655.218 508.645 655.548 508.69 655.713 508.894L675.599 532.962C675.764 533.165 675.709 533.46 675.461 533.596C675.214 533.732 674.856 533.686 674.691 533.482L654.805 509.414C654.613 509.211 654.695 508.939 654.943 508.78Z" fill="white" fill-opacity="0.5"/>
</g>
<g opacity="0.08">
<path opacity="0.08" d="M518.437 276.002C518.519 275.956 518.602 275.934 518.712 275.956L536.15 277.79C536.37 277.813 536.507 277.972 536.48 278.153C536.452 278.334 536.26 278.447 536.04 278.424L518.602 276.59C518.382 276.568 518.244 276.409 518.272 276.228C518.299 276.138 518.354 276.07 518.437 276.002Z" fill="white" fill-opacity="0.5"/>
</g>
<g opacity="0.13">
<path opacity="0.13" d="M518.354 275.911C518.492 275.843 518.657 275.798 518.822 275.843C519.097 275.911 519.262 276.16 519.179 276.409L502.896 317.866C502.814 318.093 502.511 318.228 502.209 318.16C501.934 318.093 501.769 317.844 501.851 317.594L518.134 276.138C518.189 276.047 518.244 275.956 518.354 275.911Z" fill="white" fill-opacity="0.5"/>
</g>
<g opacity="0.1">
<path opacity="0.1" d="M502.154 317.459C502.236 317.413 502.346 317.391 502.484 317.413C502.704 317.459 502.841 317.64 502.786 317.798L482.13 389.708C482.075 389.889 481.855 390.002 481.663 389.957C481.443 389.912 481.305 389.731 481.36 389.572L502.016 317.662C502.016 317.549 502.071 317.504 502.154 317.459Z" fill="white" fill-opacity="0.5"/>
</g>
<g opacity="0.04">
<path opacity="0.04" d="M481.635 389.527C481.663 389.504 481.718 389.504 481.745 389.504C481.828 389.527 481.883 389.572 481.855 389.64L458.476 483.648C458.449 483.716 458.394 483.762 458.311 483.739C458.229 483.716 458.174 483.671 458.201 483.603L481.58 389.595C481.58 389.572 481.608 389.55 481.635 389.527Z" fill="white" fill-opacity="0.5"/>
</g>
<g opacity="0.05">
<path opacity="0.05" d="M458.256 483.513C458.284 483.49 458.311 483.49 458.339 483.49C458.449 483.467 458.531 483.535 458.531 483.603L472.064 548.811C472.091 548.902 472.009 548.97 471.926 548.97C471.816 548.992 471.734 548.924 471.734 548.856L458.201 483.648C458.174 483.603 458.201 483.535 458.256 483.513Z" fill="white" fill-opacity="0.5"/>
</g>
<g opacity="0.12">
<path opacity="0.12" d="M471.651 548.562C471.789 548.494 471.954 548.471 472.119 548.539C472.311 548.63 472.394 548.856 472.284 549.015L439.03 597.559C438.92 597.74 438.645 597.785 438.453 597.694C438.26 597.604 438.178 597.377 438.288 597.219L471.541 548.675C471.541 548.63 471.596 548.585 471.651 548.562Z" fill="white" fill-opacity="0.5"/>
</g>
<g opacity="0.02">
<path opacity="0.02" d="M415.651 323.844C415.706 323.821 415.761 323.821 415.789 323.866L450.362 367.315C450.39 367.361 450.39 367.406 450.335 367.429C450.28 367.474 450.225 367.451 450.197 367.406L415.624 323.957C415.569 323.911 415.596 323.866 415.651 323.844Z" fill="white" fill-opacity="0.5"/>
</g>
<g opacity="0.14">
<path opacity="0.14" d="M378.823 322.96C378.933 322.893 379.07 322.87 379.208 322.87L415.734 323.368C416.092 323.368 416.367 323.617 416.367 323.911C416.367 324.206 416.064 324.432 415.707 324.432L379.18 323.934C378.823 323.934 378.548 323.685 378.548 323.391C378.548 323.209 378.658 323.051 378.823 322.96Z" fill="white" fill-opacity="0.5"/>
</g>
<g opacity="0.14">
<path opacity="0.14" d="M338.721 358.644C338.886 358.553 339.133 358.531 339.326 358.621C339.601 358.734 339.683 359.029 339.546 359.255L295.786 424.055C295.648 424.282 295.291 424.35 295.016 424.237C294.741 424.123 294.658 423.829 294.796 423.603L338.556 358.802C338.611 358.734 338.666 358.689 338.721 358.644Z" fill="white" fill-opacity="0.5"/>
</g>
<g opacity="0.05">
<path opacity="0.05" d="M295.181 423.693C295.208 423.671 295.263 423.671 295.291 423.671C295.401 423.671 295.483 423.738 295.483 423.829L294.108 459.852C294.108 459.942 294.026 460.01 293.916 460.01C293.806 460.01 293.723 459.942 293.723 459.852L295.098 423.829C295.098 423.761 295.153 423.716 295.181 423.693Z" fill="white" fill-opacity="0.5"/>
</g>
<g opacity="0.03">
<path opacity="0.03" d="M295.236 423.738C295.263 423.716 295.318 423.716 295.373 423.738C295.428 423.761 295.483 423.829 295.428 423.874L247.405 514.531C247.378 514.577 247.295 514.622 247.24 514.577C247.185 514.554 247.13 514.486 247.185 514.441L295.208 423.784C295.181 423.761 295.208 423.738 295.236 423.738Z" fill="white" fill-opacity="0.5"/>
</g>
<g opacity="0.26">
<path opacity="0.26" d="M1007.17 613H1009.51L990.06 597.853C989.785 597.626 989.345 597.604 989.043 597.785C988.988 597.807 988.96 597.83 988.933 597.875C988.63 598.147 988.63 598.555 988.96 598.804L1007.17 613Z" fill="white" fill-opacity="0.5"/>
</g>
<g opacity="0.02">
<path opacity="0.02" d="M973.557 542.63C973.612 542.607 973.64 542.63 973.64 542.652L989.565 598.306C989.565 598.328 989.538 598.351 989.51 598.374C989.483 598.374 989.455 598.374 989.428 598.328L973.502 542.675C973.53 542.675 973.53 542.653 973.557 542.63Z" fill="white" fill-opacity="0.5"/>
</g>
<g opacity="0.09">
<path opacity="0.09" d="M1081.84 341.776C1081.93 341.889 1082.12 341.934 1082.26 341.866L1192 288.681V288.115L1081.95 341.459C1081.95 341.459 1081.95 341.459 1081.93 341.459C1081.82 341.527 1081.76 341.662 1081.84 341.776Z" fill="white" fill-opacity="0.5"/>
</g>
<g opacity="0.25">
<path opacity="0.25" d="M955.267 390.116C955.294 390.093 955.349 390.07 955.377 390.07L1081.76 341.074C1082.15 340.915 1082.61 341.051 1082.81 341.391C1083 341.708 1082.83 342.093 1082.42 342.251L956.037 391.248C955.652 391.406 955.184 391.27 954.992 390.931C954.854 390.636 954.964 390.297 955.267 390.116Z" fill="white" fill-opacity="0.5"/>
</g>
<g opacity="0.38">
<path opacity="0.38" d="M1081.4 340.825C1081.49 340.779 1081.6 340.734 1081.71 340.689L1146.15 322.757C1146.78 322.576 1147.47 322.87 1147.69 323.391C1147.91 323.911 1147.55 324.5 1146.92 324.659L1082.48 342.591C1081.84 342.772 1081.16 342.478 1080.94 341.957C1080.77 341.527 1080.96 341.074 1081.4 340.825Z" fill="white" fill-opacity="0.5"/>
</g>
<g opacity="0.11">
<path opacity="0.11" d="M935.573 346.915C935.601 346.893 935.628 346.893 935.656 346.893C935.821 346.848 936.013 346.915 936.068 347.051L956.037 390.546C956.092 390.682 956.009 390.84 955.844 390.885C955.679 390.931 955.487 390.863 955.432 390.727L935.463 347.232C935.408 347.119 935.463 346.983 935.573 346.915Z" fill="white" fill-opacity="0.5"/>
</g>
<g opacity="0.33">
<path opacity="0.33" d="M872.808 428.539C872.835 428.516 872.863 428.516 872.89 428.493L955.239 389.957C955.707 389.753 956.284 389.867 956.532 390.251C956.78 390.636 956.615 391.112 956.175 391.316L873.825 429.852C873.358 430.056 872.78 429.942 872.533 429.557C872.285 429.218 872.422 428.765 872.808 428.539Z" fill="white" fill-opacity="0.5"/>
</g>
<g opacity="0.28">
<path opacity="0.28" d="M872.918 428.652C873.22 428.471 873.66 428.493 873.935 428.72C874.238 428.969 874.238 429.376 873.935 429.648L838.179 459.399C837.877 459.648 837.354 459.648 837.051 459.399C836.749 459.15 836.749 458.742 837.051 458.471L872.808 428.72C872.835 428.697 872.89 428.652 872.918 428.652Z" fill="white" fill-opacity="0.5"/>
</g>
<g opacity="0.15">
<path opacity="0.15" d="M837.354 458.607C837.437 458.561 837.547 458.539 837.657 458.539C837.904 458.561 838.097 458.743 838.042 458.946L835.951 473.143C835.924 473.346 835.704 473.505 835.456 473.46C835.209 473.437 835.016 473.256 835.071 473.052L837.161 458.856C837.161 458.765 837.244 458.675 837.354 458.607Z" fill="white" fill-opacity="0.5"/>
</g>
<g opacity="0.39">
<path opacity="0.39" d="M1006.21 1.4491C1006.54 1.26797 1006.95 1.20004 1007.33 1.33589C1007.97 1.53967 1008.3 2.10571 1008.05 2.64911L992.618 36.8154C992.371 37.3361 991.683 37.6078 991.023 37.404C990.39 37.2003 990.06 36.6342 990.308 36.0908L1005.74 1.92458C1005.85 1.7208 1006.01 1.56231 1006.21 1.4491Z" fill="white" fill-opacity="0.5"/>
</g>
<g opacity="0.23">
<path opacity="0.23" d="M821.181 137.82C821.291 137.752 821.401 137.729 821.539 137.729L898.635 135.601C899.02 135.601 899.322 135.827 899.322 136.144C899.322 136.461 899.047 136.71 898.662 136.71L821.566 138.839C821.181 138.839 820.879 138.612 820.879 138.295C820.879 138.091 820.989 137.91 821.181 137.82Z" fill="white" fill-opacity="0.5"/>
</g>
<g opacity="0.05">
<path opacity="0.05" d="M991.408 36.3398C991.463 36.3172 991.518 36.3172 991.573 36.3398C991.628 36.3851 991.656 36.453 991.601 36.4983L898.772 136.212C898.717 136.28 898.635 136.28 898.58 136.235C898.525 136.189 898.497 136.122 898.552 136.076L991.381 36.3625C991.381 36.3625 991.381 36.3398 991.408 36.3398Z" fill="white" fill-opacity="0.5"/>
</g>
<g opacity="0.02">
<path opacity="0.02" d="M898.635 136.122C898.662 136.122 898.662 136.122 898.69 136.122C898.717 136.144 898.717 136.167 898.69 136.167L802.533 247.202C802.533 247.224 802.478 247.224 802.478 247.202C802.451 247.179 802.451 247.156 802.478 247.156L898.635 136.122Z" fill="white" fill-opacity="0.5"/>
</g>
<g opacity="0.06">
<path opacity="0.06" d="M802.423 247.066C802.478 247.043 802.533 247.043 802.588 247.066C802.671 247.111 802.698 247.179 802.643 247.247L729.15 345.964C729.095 346.032 729.013 346.055 728.93 346.01C728.848 345.964 728.82 345.896 728.875 345.829L802.368 247.111C802.368 247.088 802.396 247.088 802.423 247.066Z" fill="white" fill-opacity="0.5"/>
</g>
<g opacity="0.07">
<path opacity="0.07" d="M728.903 345.761C728.958 345.738 729.04 345.715 729.095 345.738C729.205 345.761 729.26 345.874 729.205 345.964L686.436 440.176C686.408 440.267 686.271 440.312 686.161 440.267C686.051 440.244 685.996 440.131 686.051 440.04L728.82 345.829C728.848 345.806 728.875 345.783 728.903 345.761Z" fill="white" fill-opacity="0.5"/>
</g>
<g opacity="0.05">
<path opacity="0.05" d="M686.133 439.995C686.161 439.973 686.215 439.973 686.243 439.973C686.326 439.973 686.408 440.04 686.408 440.131L675.296 533.234C675.296 533.324 675.214 533.369 675.104 533.369C675.021 533.369 674.939 533.301 674.939 533.211L686.05 440.108C686.078 440.063 686.105 440.04 686.133 439.995Z" fill="white" fill-opacity="0.5"/>
</g>
<g opacity="0.21">
<path opacity="0.21" d="M641.823 9.66796C641.85 9.66796 641.85 9.66796 641.823 9.66796C642.126 9.48683 642.566 9.55476 642.758 9.80381L688.196 64.2796C688.416 64.5287 688.333 64.8683 688.031 65.0494C687.728 65.2306 687.316 65.1626 687.096 64.9136L641.658 10.4378C641.465 10.1887 641.52 9.8491 641.823 9.66796Z" fill="white" fill-opacity="0.5"/>
</g>
<g opacity="0.18">
<path opacity="0.18" d="M471.514 548.426C471.679 548.313 471.926 548.29 472.146 548.381C472.476 548.494 472.614 548.811 472.449 549.06L444.229 599.845C444.091 600.117 443.706 600.23 443.404 600.094C443.074 599.981 442.936 599.664 443.101 599.415L471.321 548.63C471.349 548.539 471.431 548.471 471.514 548.426Z" fill="white" fill-opacity="0.5"/>
</g>
<g opacity="0.03">
<path opacity="0.03" d="M549.985 26.853C550.012 26.853 550.04 26.8303 550.04 26.8303C550.095 26.8303 550.15 26.8756 550.122 26.9209L541.623 109.789C541.623 109.835 541.568 109.88 541.513 109.857C541.458 109.857 541.403 109.812 541.431 109.767L549.93 26.8982C549.957 26.8756 549.957 26.853 549.985 26.853Z" fill="white" fill-opacity="0.5"/>
</g>
<g opacity="0.05">
<path opacity="0.05" d="M541.458 109.676C541.486 109.653 541.541 109.653 541.596 109.653C541.678 109.676 541.733 109.744 541.706 109.812L508.315 198.975C508.287 199.043 508.205 199.088 508.122 199.065C508.04 199.043 507.985 198.975 508.012 198.907L541.403 109.744C541.403 109.699 541.431 109.676 541.458 109.676Z" fill="white" fill-opacity="0.5"/>
</g>
<g opacity="0.05">
<path opacity="0.05" d="M508.04 198.794C508.095 198.771 508.177 198.748 508.232 198.794C508.315 198.839 508.37 198.93 508.315 198.997L449.977 287.504C449.922 287.572 449.812 287.617 449.73 287.572C449.647 287.526 449.592 287.436 449.647 287.368L507.985 198.862C508.012 198.839 508.012 198.816 508.04 198.794Z" fill="white" fill-opacity="0.5"/>
</g>
<g opacity="0.04">
<path opacity="0.04" d="M449.73 287.323C449.785 287.3 449.84 287.3 449.895 287.323C449.95 287.368 449.977 287.436 449.922 287.481L374.779 373.429C374.724 373.474 374.642 373.497 374.587 373.451C374.532 373.406 374.504 373.338 374.559 373.293L449.702 287.345C449.702 287.345 449.73 287.345 449.73 287.323Z" fill="white" fill-opacity="0.5"/>
</g>
<g opacity="0.01">
<path opacity="0.01" d="M374.669 373.338C374.697 373.338 374.697 373.338 374.724 373.338C374.752 373.361 374.752 373.383 374.724 373.383L293.943 459.875C293.916 459.897 293.888 459.897 293.888 459.875C293.861 459.852 293.861 459.829 293.888 459.829L374.669 373.338Z" fill="white" fill-opacity="0.5"/>
</g>
<g opacity="0.15">
<path opacity="0.15" d="M285.637 458.946C285.747 458.878 285.857 458.856 285.994 458.856L293.971 459.376C294.273 459.399 294.493 459.603 294.466 459.852C294.438 460.101 294.163 460.282 293.888 460.26L285.912 459.739C285.609 459.716 285.389 459.512 285.417 459.263C285.417 459.15 285.499 459.037 285.637 458.946Z" fill="white" fill-opacity="0.5"/>
</g>
<g opacity="0.02">
<path opacity="0.02" d="M453.443 179.956C453.47 179.956 453.471 179.933 453.498 179.956L495.113 190.62C495.14 190.62 495.168 190.665 495.168 190.688C495.168 190.711 495.113 190.733 495.085 190.733L453.47 180.069C453.443 180.069 453.415 180.024 453.415 180.001C453.415 179.979 453.443 179.956 453.443 179.956Z" fill="white" fill-opacity="0.5"/>
</g>
<g opacity="0.1">
<path opacity="0.1" d="M402.614 192.975C402.642 192.952 402.669 192.952 402.724 192.93L453.388 179.707C453.608 179.662 453.828 179.752 453.883 179.911C453.938 180.092 453.828 180.25 453.636 180.318L402.972 193.541C402.752 193.586 402.532 193.496 402.477 193.337C402.394 193.179 402.477 193.043 402.614 192.975Z" fill="white" fill-opacity="0.5"/>
</g>
<g opacity="0.17">
<path opacity="0.17" d="M335.97 220.416C335.998 220.394 336.025 220.394 336.053 220.371L402.532 192.748C402.862 192.612 403.274 192.726 403.439 192.997C403.604 193.269 403.467 193.609 403.137 193.745L336.658 221.367C336.328 221.503 335.915 221.39 335.75 221.118C335.585 220.869 335.695 220.552 335.97 220.416Z" fill="white" fill-opacity="0.5"/>
</g>
<g opacity="0.21">
<path opacity="0.21" d="M256.674 254.764C256.702 254.741 256.729 254.741 256.757 254.719L335.998 220.281C336.383 220.122 336.85 220.235 337.043 220.552C337.236 220.869 337.098 221.254 336.713 221.413L257.472 255.851C257.087 256.009 256.619 255.896 256.427 255.579C256.234 255.307 256.344 254.945 256.674 254.764Z" fill="white" fill-opacity="0.5"/>
</g>
<g opacity="0.07">
<path opacity="0.07" d="M195.916 287.187L256.977 255.104C257.087 255.036 257.252 255.081 257.334 255.171C257.417 255.262 257.362 255.398 257.252 255.466L196.191 287.526C196.081 287.594 195.916 287.549 195.834 287.458C195.779 287.39 195.806 287.255 195.916 287.187Z" fill="white" fill-opacity="0.5"/>
</g>
<g opacity="0.17">
<path opacity="0.17" d="M180.266 294.455C180.266 294.432 180.266 294.432 180.266 294.455L256.812 254.877C257.087 254.741 257.472 254.809 257.637 255.036C257.802 255.262 257.719 255.534 257.444 255.715L180.926 295.27C180.651 295.406 180.266 295.338 180.101 295.111C179.936 294.885 179.991 294.59 180.266 294.455Z" fill="white" fill-opacity="0.5"/>
</g>
<g opacity="0.16">
<path opacity="0.16" d="M948.858 613H951.719L929.687 604.034C929.467 603.943 929.22 603.966 929.055 604.079C928.972 604.125 928.89 604.193 928.862 604.283C928.697 604.532 928.835 604.849 929.137 604.985L948.858 613Z" fill="white" fill-opacity="0.5"/>
</g>
<g opacity="0.23">
<path opacity="0.23" d="M796.95 564.615C797.17 564.502 797.445 564.456 797.692 564.524L929.688 603.875C930.128 604.011 930.348 604.396 930.183 604.736C930.018 605.075 929.55 605.279 929.137 605.143L797.142 565.792C796.702 565.656 796.482 565.271 796.647 564.932C796.702 564.796 796.812 564.683 796.95 564.615Z" fill="white" fill-opacity="0.5"/>
</g>
<g opacity="0.27">
<path opacity="0.27" d="M720.459 563.619C720.596 563.528 720.761 563.483 720.954 563.483L797.417 564.456C797.885 564.456 798.27 564.773 798.242 565.158C798.242 565.543 797.857 565.86 797.39 565.837L720.926 564.864C720.459 564.864 720.074 564.547 720.101 564.162C720.101 563.936 720.266 563.732 720.459 563.619Z" fill="white" fill-opacity="0.5"/>
</g>
<g opacity="0.27">
<path opacity="0.27" d="M720.514 563.664C720.816 563.483 721.257 563.505 721.532 563.732C721.834 563.981 721.834 564.389 721.504 564.638L683.273 595.158C682.943 595.408 682.475 595.408 682.172 595.136C681.87 594.887 681.87 594.479 682.2 594.23L720.431 563.709C720.459 563.709 720.486 563.687 720.514 563.664Z" fill="white" fill-opacity="0.5"/>
</g>
<g opacity="0.22">
<path opacity="0.22" d="M678.872 613L683.355 594.796C683.41 594.524 683.218 594.253 682.86 594.207C682.695 594.185 682.53 594.207 682.392 594.298C682.255 594.366 682.172 594.479 682.145 594.615L677.607 613.023H678.872V613Z" fill="white" fill-opacity="0.5"/>
</g>
<g opacity="0.35">
<path opacity="0.35" d="M1145.82 322.87C1145.93 322.802 1146.04 322.757 1146.18 322.734C1146.84 322.576 1147.52 322.87 1147.72 323.413L1156.24 346.802C1156.44 347.346 1156.08 347.912 1155.42 348.07C1154.76 348.229 1154.07 347.934 1153.88 347.391L1145.35 324.002C1145.21 323.572 1145.41 323.119 1145.82 322.87Z" fill="white" fill-opacity="0.5"/>
</g>
<g opacity="0.05">
<path opacity="0.05" d="M755.803 381.534C755.83 381.534 755.83 381.512 755.858 381.512L935.738 347.029C935.821 347.006 935.903 347.051 935.903 347.119C935.931 347.187 935.876 347.255 935.794 347.255L755.913 381.738C755.83 381.761 755.748 381.716 755.748 381.648C755.72 381.602 755.748 381.557 755.803 381.534Z" fill="white" fill-opacity="0.5"/>
</g>
<g opacity="0.25">
<path opacity="0.25" d="M896.214 314.651C896.544 314.447 897.012 314.493 897.314 314.719L936.371 346.644C936.701 346.915 936.701 347.368 936.371 347.663C936.041 347.934 935.491 347.934 935.133 347.663L896.077 315.738C895.747 315.466 895.747 315.013 896.077 314.719C896.132 314.696 896.187 314.674 896.214 314.651Z" fill="white" fill-opacity="0.5"/>
</g>
<g opacity="0.08">
<path opacity="0.08" d="M621.469 434.38L621.497 434.357L755.775 381.444C755.885 381.399 756.023 381.444 756.078 381.534C756.133 381.625 756.105 381.738 755.968 381.784L621.689 434.72C621.579 434.765 621.442 434.72 621.387 434.629C621.332 434.539 621.359 434.425 621.469 434.38Z" fill="white" fill-opacity="0.5"/>
</g>
<g opacity="0.08">
<path opacity="0.08" d="M621.469 434.38C621.552 434.335 621.689 434.335 621.772 434.403C621.854 434.471 621.855 434.606 621.744 434.674L524.13 507.535C524.02 507.626 523.883 507.603 523.8 507.513C523.718 507.445 523.718 507.309 523.828 507.241L621.469 434.38C621.442 434.38 621.442 434.38 621.469 434.38Z" fill="white" fill-opacity="0.5"/>
</g>
<g opacity="0.04">
<path opacity="0.04" d="M523.91 507.309C523.965 507.286 524.02 507.286 524.075 507.309C524.13 507.354 524.158 507.422 524.103 507.467L443.816 599.709C443.789 599.755 443.706 599.777 443.624 599.732C443.569 599.687 443.541 599.619 443.596 599.573L523.883 507.331C523.883 507.309 523.883 507.309 523.91 507.309Z" fill="white" fill-opacity="0.5"/>
</g>
<g opacity="0.1">
<path opacity="0.1" d="M439.911 613L443.954 599.687C443.981 599.551 443.899 599.415 443.734 599.392C443.651 599.37 443.569 599.392 443.486 599.438C443.431 599.46 443.376 599.528 443.376 599.574L439.306 613H439.911Z" fill="white" fill-opacity="0.5"/>
</g>
<g opacity="0.05">
<path opacity="0.05" d="M859.523 61.291C859.55 61.291 859.55 61.2683 859.578 61.2683L991.463 36.2946C991.546 36.2719 991.656 36.3172 991.683 36.4078C991.711 36.4757 991.656 36.5663 991.546 36.5889L859.66 61.5627C859.578 61.5853 859.468 61.54 859.44 61.4495C859.413 61.3815 859.44 61.3363 859.523 61.291Z" fill="white" fill-opacity="0.5"/>
</g>
<g opacity="0.39">
<path opacity="0.39" d="M990.72 35.5474C990.83 35.4795 990.94 35.4342 991.05 35.4115L1082.72 10.2793C1083.41 10.0982 1084.15 10.3925 1084.4 10.9586C1084.62 11.5246 1084.26 12.1359 1083.58 12.3397L991.903 37.4719C991.215 37.6531 990.473 37.3587 990.225 36.7927C990.033 36.3172 990.253 35.8191 990.72 35.5474Z" fill="white" fill-opacity="0.5"/>
</g>
<g opacity="0.23">
<path opacity="0.23" d="M859.193 60.9286C859.385 60.8154 859.66 60.7928 859.88 60.8607C860.265 60.9966 860.431 61.3362 860.293 61.6532L822.254 138.499C822.089 138.816 821.676 138.952 821.291 138.839C820.906 138.703 820.741 138.363 820.879 138.046L858.918 61.2003C859 61.0871 859.083 60.9966 859.193 60.9286Z" fill="white" fill-opacity="0.5"/>
</g>
<g opacity="0.19">
<path opacity="0.19" d="M188.985 510.547C188.985 510.524 188.985 510.524 188.985 510.547L285.637 458.924C285.912 458.765 286.297 458.833 286.462 459.059C286.654 459.286 286.572 459.603 286.297 459.739L189.673 511.362C189.398 511.52 189.013 511.452 188.848 511.226C188.627 510.977 188.71 510.682 188.985 510.547Z" fill="white" fill-opacity="0.5"/>
</g>
<g opacity="0.11">
<path opacity="0.11" d="M629.803 0H628.868L641.988 10.3246C642.126 10.4152 642.318 10.4378 642.456 10.3246C642.566 10.2114 642.566 10.0529 642.456 9.93968L629.803 0Z" fill="white" fill-opacity="0.5"/>
</g>
<g opacity="0.05">
<path opacity="0.05" d="M642.153 10.0302C642.208 10.0076 642.263 10.0076 642.291 10.0302C642.346 10.0755 642.373 10.1208 642.318 10.1887L552.735 119.706C552.68 119.752 552.625 119.774 552.543 119.729C552.488 119.684 552.46 119.638 552.515 119.571L642.098 10.0529C642.125 10.0529 642.125 10.0529 642.153 10.0302Z" fill="white" fill-opacity="0.5"/>
</g>
<g opacity="0.08">
<path opacity="0.08" d="M552.515 119.48C552.598 119.435 552.735 119.435 552.818 119.503C552.9 119.571 552.9 119.684 552.79 119.752L442.524 200.831C442.414 200.899 442.304 200.899 442.221 200.809C442.139 200.741 442.139 200.628 442.249 200.56L552.515 119.48C552.515 119.503 552.488 119.503 552.515 119.48Z" fill="white" fill-opacity="0.5"/>
</g>
<g opacity="0.07">
<path opacity="0.07" d="M317.13 255.013C317.13 255.013 317.157 255.013 317.13 255.013L442.276 200.537C442.386 200.492 442.524 200.514 442.579 200.605C442.634 200.696 442.579 200.809 442.496 200.854L317.377 255.307C317.267 255.353 317.13 255.33 317.075 255.239C317.02 255.171 317.047 255.058 317.13 255.013Z" fill="white" fill-opacity="0.5"/>
</g>
<g opacity="0.04">
<path opacity="0.04" d="M195.999 287.277C195.999 287.277 196.026 287.277 196.026 287.255L317.24 255.058C317.295 255.036 317.377 255.081 317.377 255.126C317.405 255.171 317.377 255.239 317.295 255.239L196.081 287.436C196.026 287.458 195.944 287.413 195.944 287.368C195.916 287.345 195.944 287.3 195.999 287.277Z" fill="white" fill-opacity="0.5"/>
</g>
<g opacity="0.21">
<path opacity="0.21" d="M141.512 308.945C141.539 308.923 141.567 308.923 141.594 308.9L195.751 286.87C196.081 286.734 196.466 286.847 196.631 287.119C196.796 287.39 196.631 287.707 196.329 287.843L142.172 309.874C141.842 310.009 141.457 309.896 141.292 309.625C141.154 309.398 141.264 309.104 141.512 308.945Z" fill="white" fill-opacity="0.5"/>
</g>
<g opacity="0.17">
<path opacity="0.17" d="M494.15 0.996268C494.342 0.88306 494.618 0.88306 494.81 0.996268C495.058 1.15476 495.113 1.4491 494.948 1.65288L443.569 59.3891C443.376 59.5928 443.019 59.6381 442.771 59.5023C442.524 59.3438 442.469 59.0494 442.634 58.8457L494.012 1.10948C494.067 1.06419 494.095 1.01891 494.15 0.996268Z" fill="white" fill-opacity="0.5"/>
</g>
<g opacity="0.21">
<path opacity="0.21" d="M360.862 94.4157C360.89 94.3931 360.917 94.3931 360.945 94.3704L442.771 58.5966C443.101 58.4381 443.541 58.5513 443.734 58.8457C443.926 59.1174 443.789 59.4797 443.431 59.6381L361.605 95.4119C361.275 95.5704 360.835 95.4572 360.642 95.1629C360.477 94.9138 360.587 94.5968 360.862 94.4157Z" fill="white" fill-opacity="0.5"/>
</g>
<g opacity="0.24">
<path opacity="0.24" d="M249.88 106.325C249.963 106.28 250.101 106.235 250.211 106.212L361.192 94.3025C361.605 94.2572 361.99 94.5062 362.045 94.8232C362.1 95.1628 361.797 95.4798 361.412 95.5025L250.431 107.412C250.018 107.457 249.633 107.208 249.605 106.891C249.523 106.665 249.66 106.438 249.88 106.325Z" fill="white" fill-opacity="0.5"/>
</g>
<g opacity="0.22">
<path opacity="0.22" d="M119.04 94.5742C119.178 94.5063 119.316 94.461 119.481 94.4836L250.376 106.28C250.733 106.303 251.008 106.574 250.953 106.891C250.926 107.186 250.596 107.412 250.211 107.367L119.343 95.5478C118.985 95.5251 118.71 95.2534 118.765 94.9365C118.765 94.8006 118.875 94.6421 119.04 94.5742Z" fill="white" fill-opacity="0.5"/>
</g>
<g opacity="0.05">
<path opacity="0.05" d="M859.66 613H860.376L746.011 546.026C745.928 545.981 745.846 545.981 745.763 546.026C745.736 546.026 745.736 546.049 745.708 546.071C745.653 546.139 745.653 546.252 745.763 546.298L859.66 613Z" fill="white" fill-opacity="0.5"/>
</g>
<g opacity="0.25">
<path opacity="0.25" d="M730.883 508.35C730.966 508.305 731.076 508.26 731.186 508.237C731.736 508.079 732.341 508.35 732.533 508.803L746.918 545.913C747.111 546.366 746.781 546.864 746.231 547.022C745.681 547.181 745.076 546.909 744.883 546.456L730.498 509.347C730.333 508.962 730.526 508.554 730.883 508.35Z" fill="white" fill-opacity="0.5"/>
</g>
<g opacity="0.07">
<path opacity="0.07" d="M573.281 488.312C573.364 488.267 573.446 488.267 573.556 488.29L746.011 545.981C746.148 546.026 746.231 546.162 746.176 546.275C746.121 546.388 745.956 546.456 745.818 546.411L573.364 488.72C573.226 488.675 573.144 488.539 573.199 488.426C573.199 488.358 573.226 488.335 573.281 488.312Z" fill="white" fill-opacity="0.5"/>
</g>
<g opacity="0.08">
<path opacity="0.08" d="M430.504 475.611C430.559 475.588 430.614 475.565 430.697 475.565L573.446 488.267C573.611 488.29 573.721 488.403 573.694 488.516C573.666 488.652 573.529 488.743 573.391 488.72L430.642 476.018C430.477 475.995 430.367 475.882 430.394 475.769C430.422 475.701 430.449 475.656 430.504 475.611Z" fill="white" fill-opacity="0.5"/>
</g>
<g opacity="0.06">
<path opacity="0.06" d="M305.605 489.241C305.633 489.218 305.66 489.218 305.688 489.218L430.642 475.633C430.752 475.633 430.834 475.679 430.862 475.769C430.862 475.86 430.807 475.928 430.697 475.95L305.743 489.535C305.633 489.558 305.55 489.49 305.523 489.399C305.523 489.331 305.55 489.286 305.605 489.241Z" fill="white" fill-opacity="0.5"/>
</g>
<g opacity="0.02">
<path opacity="0.02" d="M189.288 510.909C189.288 510.909 189.315 510.909 189.288 510.909L305.715 489.331C305.743 489.331 305.77 489.331 305.77 489.354C305.77 489.377 305.77 489.399 305.743 489.399L189.343 510.977C189.315 510.977 189.288 510.977 189.288 510.954C189.26 510.931 189.288 510.909 189.288 510.909Z" fill="white" fill-opacity="0.5"/>
</g>
<g opacity="0.08">
<path opacity="0.08" d="M189.178 510.773C189.26 510.728 189.37 510.728 189.453 510.773C189.563 510.841 189.59 510.954 189.508 511.067L104.711 612.592C104.628 612.683 104.463 612.706 104.353 612.638C104.243 612.57 104.215 612.457 104.298 612.343L189.095 510.818C189.123 510.796 189.15 510.796 189.178 510.773Z" fill="white" fill-opacity="0.5"/>
</g>
<g opacity="0.15">
<path opacity="0.15" d="M1075.16 272.809C1075.41 272.673 1075.74 272.696 1075.96 272.877L1155.53 346.757C1155.75 346.961 1155.72 347.278 1155.47 347.459C1155.23 347.64 1154.84 347.617 1154.62 347.413L1075.05 273.534C1074.83 273.33 1074.86 273.013 1075.1 272.832C1075.13 272.832 1075.13 272.809 1075.16 272.809Z" fill="white" fill-opacity="0.5"/>
</g>
<g opacity="0.36">
<path opacity="0.36" d="M1154.76 348.251L1192 355.157V352.712L1155.39 345.919C1154.98 345.851 1154.57 345.919 1154.24 346.1C1153.96 346.259 1153.74 346.508 1153.66 346.825C1153.47 347.481 1153.96 348.115 1154.76 348.251Z" fill="white" fill-opacity="0.5"/>
</g>
<g opacity="0.08">
<path opacity="0.08" d="M829.9 201.375C829.9 201.375 829.928 201.352 829.955 201.352C830.12 201.284 830.285 201.352 830.368 201.465L897.012 315.104C897.094 315.24 897.012 315.376 896.874 315.443C896.709 315.511 896.544 315.443 896.462 315.33L829.818 201.692C829.708 201.579 829.763 201.443 829.9 201.375Z" fill="white" fill-opacity="0.5"/>
</g>
<g opacity="0.18">
<path opacity="0.18" d="M896.324 314.764C896.379 314.719 896.462 314.696 896.544 314.674L1075.32 272.651C1075.68 272.56 1076.07 272.741 1076.18 273.036C1076.29 273.33 1076.07 273.647 1075.71 273.738L896.929 315.76C896.572 315.851 896.187 315.67 896.077 315.376C895.967 315.149 896.077 314.9 896.324 314.764Z" fill="white" fill-opacity="0.5"/>
</g>
<g opacity="0.18">
<path opacity="0.18" d="M1.95285 336.319C2.00786 336.296 2.06287 336.274 2.14538 336.251L141.787 308.968C142.062 308.923 142.364 309.059 142.419 309.285C142.474 309.511 142.309 309.76 142.034 309.806L2.39293 337.112C2.11788 337.157 1.81533 337.021 1.76032 336.795C1.70531 336.591 1.78782 336.432 1.95285 336.319Z" fill="white" fill-opacity="0.5"/>
</g>
<g opacity="0.08">
<path opacity="0.08" d="M141.759 309.24C141.842 309.194 141.924 309.194 142.007 309.24C142.117 309.285 142.172 309.421 142.089 309.511L84.7146 392.901C84.6596 392.991 84.4946 393.036 84.3845 392.968C84.2745 392.923 84.2195 392.787 84.302 392.697L141.704 309.285C141.704 309.262 141.732 309.262 141.759 309.24Z" fill="white" fill-opacity="0.5"/>
</g>
<g opacity="0.3">
<path opacity="0.3" d="M1079.73 0L1082.04 11.4793C1082.15 12.0001 1082.72 12.3397 1083.36 12.2491C1083.99 12.1586 1084.4 11.6831 1084.29 11.1623L1082.04 0H1079.73Z" fill="white" fill-opacity="0.5"/>
</g>
<g opacity="0.08">
<path opacity="0.08" d="M1144.75 0L1083.11 11.0718C1083.08 11.0718 1083.03 11.0944 1083 11.117C1082.92 11.1623 1082.86 11.2755 1082.89 11.3661C1082.92 11.502 1083.08 11.5699 1083.25 11.5472L1147.5 0H1144.75Z" fill="white" fill-opacity="0.5"/>
</g>
<g opacity="0.08">
<path opacity="0.08" d="M850.199 0L859.303 61.4494C859.33 61.5853 859.468 61.6985 859.633 61.6759C859.798 61.6532 859.935 61.54 859.908 61.4042L850.831 0H850.199Z" fill="white" fill-opacity="0.5"/>
</g>
<g opacity="0.02">
<path opacity="0.02" d="M663.524 111.216C663.552 111.216 663.552 111.216 663.524 111.216L859.578 61.3815C859.605 61.3815 859.633 61.3815 859.66 61.4041C859.66 61.4268 859.66 61.4494 859.633 61.4721L663.579 111.306C663.552 111.306 663.524 111.306 663.497 111.284C663.497 111.238 663.524 111.216 663.524 111.216Z" fill="white" fill-opacity="0.5"/>
</g>
<g opacity="0.06">
<path opacity="0.06" d="M483.423 144.884C483.451 144.861 483.478 144.861 483.506 144.861L663.552 111.103C663.662 111.08 663.772 111.148 663.799 111.238C663.827 111.329 663.744 111.42 663.634 111.442L483.588 145.201C483.478 145.224 483.368 145.156 483.341 145.065C483.313 144.997 483.341 144.929 483.423 144.884Z" fill="white" fill-opacity="0.5"/>
</g>
<g opacity="0.08">
<path opacity="0.08" d="M308.053 150.635C308.108 150.612 308.136 150.59 308.191 150.59L483.506 144.793C483.671 144.793 483.781 144.884 483.808 145.02C483.808 145.156 483.698 145.246 483.533 145.269L308.218 151.065C308.053 151.065 307.943 150.975 307.915 150.839C307.943 150.748 307.97 150.68 308.053 150.635Z" fill="white" fill-opacity="0.5"/>
</g>
<g opacity="0.07">
<path opacity="0.07" d="M135.763 122.944C135.818 122.922 135.873 122.899 135.956 122.922L308.273 150.635C308.411 150.658 308.493 150.771 308.466 150.884C308.438 150.997 308.301 151.065 308.163 151.042L135.846 123.329C135.708 123.306 135.626 123.193 135.653 123.08C135.681 123.035 135.708 122.989 135.763 122.944Z" fill="white" fill-opacity="0.5"/>
</g>
<g opacity="0.25">
<path opacity="0.25" d="M22.3339 154.597C22.3889 154.552 22.4714 154.529 22.5539 154.507L135.626 122.469C136.066 122.355 136.534 122.537 136.699 122.899C136.836 123.261 136.616 123.646 136.176 123.782L23.104 155.82C22.6639 155.933 22.1963 155.752 22.0313 155.39C21.9213 155.095 22.0313 154.778 22.3339 154.597Z" fill="white" fill-opacity="0.5"/>
</g>
<g opacity="0.06">
<path opacity="0.06" d="M20.9036 575.687C20.9586 575.664 21.0136 575.641 21.0962 575.687L104.628 612.343C104.711 612.389 104.738 612.479 104.711 612.547C104.656 612.615 104.546 612.638 104.463 612.615L20.9036 575.936C20.8211 575.89 20.7936 575.8 20.8211 575.732C20.8486 575.732 20.8761 575.709 20.9036 575.687Z" fill="white" fill-opacity="0.5"/>
</g>
<g opacity="0.2">
<path opacity="0.2" d="M210.109 613L235.083 598.758C235.551 598.487 235.661 597.989 235.33 597.604C235 597.219 234.368 597.128 233.928 597.4L206.533 613H210.109Z" fill="white" fill-opacity="0.5"/>
</g>
<g opacity="0.27">
<path opacity="0.27" d="M237.943 510.614C238.136 510.501 238.384 510.433 238.659 510.433C239.291 510.456 239.786 510.886 239.759 511.407L235.661 598.102C235.633 598.623 235.11 599.03 234.478 599.007C233.845 598.985 233.35 598.555 233.378 598.034L237.476 511.339C237.476 511.045 237.668 510.796 237.943 510.614Z" fill="white" fill-opacity="0.5"/>
</g>
<g opacity="0.19">
<path opacity="0.19" d="M172.372 446.199C172.675 446.018 173.087 446.063 173.307 446.312L239.154 511.045C239.401 511.294 239.374 511.656 239.071 511.86C238.796 512.064 238.329 512.041 238.081 511.792L172.235 447.059C171.987 446.81 172.015 446.448 172.317 446.244C172.345 446.222 172.345 446.199 172.372 446.199Z" fill="white" fill-opacity="0.5"/>
</g>
<g opacity="0.07">
<path opacity="0.07" d="M84.357 392.629C84.4396 392.584 84.5496 392.584 84.6321 392.629L172.895 446.493C173.005 446.561 173.032 446.674 172.95 446.765C172.867 446.856 172.73 446.878 172.62 446.81L84.357 392.946C84.247 392.878 84.2195 392.765 84.302 392.674C84.3295 392.674 84.357 392.652 84.357 392.629Z" fill="white" fill-opacity="0.5"/>
</g>
<g opacity="0.1">
<path opacity="0.1" d="M828.8 613H830.093L731.928 508.803C731.763 508.622 731.461 508.577 731.241 508.713C731.241 508.713 731.241 508.713 731.213 508.735C730.993 508.871 730.938 509.143 731.131 509.324L828.8 613Z" fill="white" fill-opacity="0.5"/>
</g>
<g opacity="0.07">
<path opacity="0.07" d="M539.038 390.953C539.148 390.885 539.285 390.885 539.395 390.953L731.681 508.848C731.818 508.939 731.846 509.097 731.736 509.211C731.626 509.324 731.433 509.346 731.296 509.256L539.01 391.361C538.873 391.27 538.845 391.112 538.955 390.999C539.01 390.976 539.01 390.976 539.038 390.953Z" fill="white" fill-opacity="0.5"/>
</g>
<g opacity="0.04">
<path opacity="0.04" d="M352.831 308.47C352.886 308.447 352.968 308.425 353.023 308.47L539.313 391.044C539.395 391.089 539.423 391.18 539.395 391.248C539.34 391.316 539.23 391.338 539.148 391.316L352.858 308.742C352.776 308.696 352.748 308.606 352.776 308.538C352.776 308.515 352.803 308.492 352.831 308.47Z" fill="white" fill-opacity="0.5"/>
</g>
<g opacity="0.04">
<path opacity="0.04" d="M181.311 236.379C181.366 236.356 181.421 236.356 181.476 236.379L352.996 308.492C353.078 308.515 353.106 308.606 353.078 308.674C353.051 308.742 352.941 308.764 352.858 308.742L181.311 236.605C181.229 236.583 181.201 236.492 181.229 236.424C181.256 236.401 181.284 236.379 181.311 236.379Z" fill="white" fill-opacity="0.5"/>
</g>
<g opacity="0.07">
<path opacity="0.07" d="M22.6915 154.982C22.774 154.937 22.884 154.937 22.9665 154.982L181.531 236.311C181.641 236.379 181.696 236.492 181.614 236.583C181.531 236.673 181.394 236.718 181.284 236.651L22.6915 155.344C22.5814 155.276 22.5264 155.163 22.6089 155.073C22.6364 155.027 22.664 155.005 22.6915 154.982Z" fill="white" fill-opacity="0.5"/>
</g>
<g opacity="0.07">
<path opacity="0.07" d="M610.715 147.578C610.798 147.533 610.88 147.51 610.99 147.533L830.175 201.33C830.34 201.375 830.423 201.511 830.395 201.646C830.34 201.782 830.175 201.85 830.01 201.828L610.825 148.031C610.66 147.986 610.578 147.85 610.605 147.714C610.605 147.669 610.66 147.624 610.715 147.578Z" fill="white" fill-opacity="0.5"/>
</g>
<g opacity="0.19">
<path opacity="0.19" d="M420.85 90.3855C421.07 90.2723 421.345 90.227 421.593 90.2949L611.155 147.148C611.595 147.284 611.788 147.669 611.65 148.008C611.485 148.371 611.018 148.552 610.605 148.416L421.042 91.5628C420.602 91.427 420.382 91.0421 420.547 90.7025C420.602 90.5666 420.712 90.476 420.85 90.3855Z" fill="white" fill-opacity="0.5"/>
</g>
<g opacity="0.27">
<path opacity="0.27" d="M252.741 12.6567C253.126 12.4303 253.621 12.4076 254.034 12.6114L421.923 90.0685C422.5 90.3402 422.72 90.9515 422.39 91.427C422.06 91.9024 421.317 92.0836 420.74 91.8119L252.851 14.3548C252.273 14.0831 252.053 13.4718 252.383 12.9963C252.466 12.8604 252.603 12.7472 252.741 12.6567Z" fill="white" fill-opacity="0.5"/>
</g>
<path opacity="0.51" d="M1174.31 96.0911C1174.81 96.9289 1174.42 97.9478 1173.41 98.3553C1172.39 98.7855 1171.15 98.4459 1170.66 97.6081C1170.13 96.7704 1170.55 95.7515 1171.56 95.344C1172.58 94.9138 1173.82 95.2534 1174.31 96.0911Z" fill="white" fill-opacity="0.5"/>
<path opacity="0.48" d="M1173.79 237.624C1174.29 238.439 1173.87 239.413 1172.91 239.82C1171.92 240.228 1170.74 239.888 1170.24 239.096C1169.75 238.281 1170.16 237.307 1171.12 236.9C1172.09 236.492 1173.3 236.809 1173.79 237.624Z" fill="white" fill-opacity="0.5"/>
<path opacity="0.46" d="M1178.66 337.723C1179.13 338.515 1178.74 339.466 1177.81 339.874C1176.84 340.259 1175.69 339.942 1175.19 339.172C1174.73 338.379 1175.11 337.429 1176.05 337.021C1176.98 336.613 1178.19 336.953 1178.66 337.723Z" fill="white" fill-opacity="0.5"/>
<path opacity="0.44" d="M956.807 71.4118C957.275 72.1816 956.89 73.1326 955.954 73.5175C955.019 73.9024 953.864 73.5854 953.397 72.8156C952.929 72.0458 953.314 71.0948 954.249 70.7099C955.184 70.325 956.34 70.642 956.807 71.4118Z" fill="white" fill-opacity="0.5"/>
<path opacity="0.4" d="M985.88 144.544C986.32 145.292 985.962 146.175 985.055 146.559C984.147 146.922 983.074 146.627 982.607 145.88C982.166 145.133 982.524 144.25 983.432 143.865C984.339 143.525 985.44 143.82 985.88 144.544Z" fill="white" fill-opacity="0.5"/>
<path opacity="0.37" d="M1013.6 176.944C1014.04 177.646 1013.69 178.507 1012.83 178.869C1011.98 179.231 1010.94 178.937 1010.5 178.235C1010.06 177.533 1010.41 176.673 1011.27 176.311C1012.12 175.971 1013.16 176.243 1013.6 176.944Z" fill="white" fill-opacity="0.5"/>
<path opacity="0.26" d="M609.89 37.8115C610.248 38.4002 609.972 39.1247 609.23 39.4417C608.515 39.7361 607.635 39.5097 607.25 38.8983C606.892 38.3096 607.167 37.5851 607.91 37.2681C608.652 36.9738 609.532 37.2002 609.89 37.8115Z" fill="white" fill-opacity="0.5"/>
<path opacity="0.31" d="M654.173 28.4606C654.585 29.1172 654.255 29.9096 653.457 30.2493C652.66 30.5889 651.697 30.3172 651.285 29.6606C650.872 29.004 651.202 28.2115 652 27.8719C652.797 27.5323 653.788 27.804 654.173 28.4606Z" fill="white" fill-opacity="0.5"/>
<path opacity="0.34" d="M709.925 68.2419C710.337 68.9212 710.007 69.7589 709.182 70.0985C708.357 70.4382 707.339 70.1665 706.927 69.4872C706.514 68.808 706.844 67.9702 707.669 67.6306C708.494 67.291 709.512 67.5627 709.925 68.2419Z" fill="white" fill-opacity="0.5"/>
<path opacity="0.34" d="M761.358 121.472C761.771 122.152 761.441 122.989 760.616 123.329C759.791 123.669 758.773 123.397 758.36 122.718C757.948 122.039 758.278 121.201 759.103 120.861C759.928 120.522 760.946 120.793 761.358 121.472Z" fill="white" fill-opacity="0.5"/>
<path opacity="0.33" d="M806.494 159.827C806.906 160.507 806.576 161.299 805.751 161.639C804.926 161.978 803.963 161.707 803.551 161.027C803.138 160.348 803.468 159.556 804.293 159.216C805.091 158.876 806.081 159.148 806.494 159.827Z" fill="white" fill-opacity="0.5"/>
<path opacity="0.31" d="M846.321 163.337C846.733 163.993 846.403 164.786 845.605 165.126C844.808 165.465 843.845 165.193 843.433 164.537C843.02 163.88 843.35 163.088 844.148 162.748C844.945 162.409 845.936 162.68 846.321 163.337Z" fill="white" fill-opacity="0.5"/>
<path opacity="0.24" d="M601.006 292.372C601.363 292.938 601.061 293.64 600.373 293.934C599.686 294.228 598.833 293.979 598.475 293.413C598.118 292.847 598.42 292.145 599.108 291.851C599.796 291.556 600.648 291.806 601.006 292.372Z" fill="white" fill-opacity="0.5"/>
<path opacity="0.27" d="M624.082 291.375C624.44 291.987 624.165 292.734 623.422 293.028C622.68 293.323 621.772 293.096 621.414 292.485C621.057 291.873 621.332 291.126 622.075 290.832C622.817 290.515 623.725 290.764 624.082 291.375Z" fill="white" fill-opacity="0.5"/>
<path opacity="0.28" d="M659.013 316.825C659.398 317.436 659.096 318.206 658.326 318.523C657.583 318.84 656.648 318.591 656.263 317.957C655.878 317.345 656.18 316.576 656.951 316.259C657.693 315.942 658.628 316.191 659.013 316.825Z" fill="white" fill-opacity="0.5"/>
<path opacity="0.23" d="M490.024 490.622C490.354 491.188 490.079 491.867 489.419 492.139C488.732 492.411 487.906 492.184 487.576 491.641C487.246 491.075 487.521 490.396 488.181 490.124C488.842 489.852 489.667 490.079 490.024 490.622Z" fill="white" fill-opacity="0.5"/>
<path opacity="0.25" d="M496.488 453.739C496.845 454.327 496.57 455.029 495.855 455.324C495.14 455.618 494.287 455.391 493.93 454.803C493.572 454.214 493.847 453.512 494.563 453.218C495.278 452.924 496.13 453.173 496.488 453.739Z" fill="white" fill-opacity="0.5"/>
<path opacity="0.27" d="M507.572 458.607C507.93 459.218 507.655 459.965 506.912 460.259C506.17 460.554 505.262 460.327 504.904 459.716C504.547 459.105 504.822 458.358 505.564 458.063C506.307 457.769 507.187 457.995 507.572 458.607Z" fill="white" fill-opacity="0.5"/>
<path opacity="0.3" d="M528.861 497.075C529.246 497.709 528.944 498.479 528.173 498.796C527.403 499.113 526.468 498.863 526.083 498.229C525.698 497.595 526 496.826 526.771 496.509C527.541 496.192 528.476 496.441 528.861 497.075Z" fill="white" fill-opacity="0.5"/>
<path opacity="0.31" d="M567.45 553.86C567.863 554.517 567.533 555.309 566.735 555.649C565.937 555.988 564.975 555.717 564.562 555.06C564.15 554.403 564.48 553.611 565.277 553.271C566.075 552.954 567.065 553.203 567.45 553.86Z" fill="white" fill-opacity="0.5"/>
<path opacity="0.31" d="M632.114 604.442C632.526 605.098 632.196 605.891 631.399 606.23C630.601 606.57 629.638 606.298 629.226 605.642C628.813 604.985 629.143 604.193 629.941 603.853C630.739 603.536 631.701 603.785 632.114 604.442Z" fill="white" fill-opacity="0.5"/>
<path opacity="0.21" d="M371.809 434.674C372.139 435.218 371.864 435.874 371.231 436.123C370.571 436.395 369.774 436.169 369.471 435.648C369.141 435.105 369.416 434.448 370.049 434.199C370.709 433.905 371.506 434.131 371.809 434.674Z" fill="white" fill-opacity="0.5"/>
<path opacity="0.24" d="M364.575 429.15C364.933 429.716 364.63 430.418 363.943 430.712C363.255 431.006 362.402 430.757 362.045 430.191C361.687 429.625 361.99 428.923 362.677 428.629C363.392 428.335 364.218 428.561 364.575 429.15Z" fill="white" fill-opacity="0.5"/>
<path opacity="0.26" d="M356.846 455.233C357.204 455.822 356.929 456.546 356.186 456.863C355.471 457.158 354.591 456.931 354.206 456.32C353.848 455.731 354.123 455.007 354.866 454.69C355.609 454.395 356.489 454.644 356.846 455.233Z" fill="white" fill-opacity="0.5"/>
<path opacity="0.29" d="M349.53 515.211C349.915 515.845 349.613 516.614 348.843 516.931C348.072 517.248 347.137 516.999 346.752 516.365C346.367 515.731 346.67 514.962 347.44 514.645C348.21 514.328 349.145 514.577 349.53 515.211Z" fill="white" fill-opacity="0.5"/>
<path opacity="0.59" d="M1179.27 401.504C1179.82 402.433 1179.38 403.542 1178.25 403.995C1177.12 404.448 1175.77 404.086 1175.22 403.157C1174.67 402.229 1175.11 401.119 1176.24 400.667C1177.34 400.214 1178.71 400.576 1179.27 401.504Z" fill="white" fill-opacity="0.5"/>
<path opacity="0.57" d="M1119.63 450.456C1120.18 451.339 1119.74 452.403 1118.67 452.856C1117.6 453.308 1116.31 452.946 1115.76 452.063C1115.21 451.18 1115.65 450.116 1116.72 449.663C1117.79 449.21 1119.08 449.573 1119.63 450.456Z" fill="white" fill-opacity="0.5"/>
<path opacity="0.5" d="M1088.86 455.708C1089.35 456.524 1088.97 457.542 1087.95 457.95C1086.96 458.358 1085.72 458.041 1085.23 457.203C1084.73 456.365 1085.12 455.369 1086.13 454.961C1087.15 454.554 1088.36 454.893 1088.86 455.708Z" fill="white" fill-opacity="0.5"/>
<path opacity="0.41" d="M1079.31 417.308C1079.78 418.055 1079.4 418.984 1078.49 419.346C1077.58 419.708 1076.45 419.414 1076.01 418.667C1075.54 417.92 1075.93 416.991 1076.84 416.629C1077.72 416.267 1078.85 416.561 1079.31 417.308Z" fill="white" fill-opacity="0.5"/>
<path opacity="0.58" d="M1030.9 55.2004C1031.45 56.0834 1031.01 57.1476 1029.94 57.6004C1028.87 58.0532 1027.58 57.691 1027.03 56.8079C1026.48 55.9249 1026.92 54.8607 1027.99 54.4079C1029.06 53.9551 1030.35 54.3173 1030.9 55.2004Z" fill="white" fill-opacity="0.5"/>
<path opacity="0.52" d="M984.009 178.258C984.532 179.095 984.119 180.137 983.074 180.567C982.056 180.997 980.791 180.658 980.269 179.797C979.746 178.937 980.159 177.918 981.204 177.488C982.249 177.08 983.487 177.42 984.009 178.258Z" fill="white" fill-opacity="0.5"/>
<path opacity="0.47" d="M947.318 262.371C947.813 263.164 947.401 264.137 946.438 264.545C945.475 264.953 944.293 264.613 943.797 263.82C943.302 263.028 943.715 262.054 944.678 261.647C945.64 261.262 946.823 261.579 947.318 262.371Z" fill="white" fill-opacity="0.5"/>
<path opacity="0.42" d="M929.797 307.564C930.265 308.311 929.88 309.24 928.972 309.602C928.065 309.987 926.937 309.67 926.497 308.923C926.029 308.176 926.414 307.247 927.322 306.885C928.23 306.523 929.357 306.817 929.797 307.564Z" fill="white" fill-opacity="0.5"/>
<path opacity="0.36" d="M928.972 308.47C929.412 309.172 929.055 310.032 928.202 310.394C927.35 310.757 926.304 310.462 925.864 309.76C925.424 309.059 925.782 308.198 926.634 307.836C927.487 307.474 928.532 307.768 928.972 308.47Z" fill="white" fill-opacity="0.5"/>
<path opacity="0.47" d="M766.447 1.69817C766.942 2.49063 766.529 3.46422 765.567 3.87177C764.604 4.27932 763.421 3.93969 762.926 3.14723C762.431 2.35478 762.844 1.38119 763.806 0.973636C764.769 0.566086 765.952 0.905711 766.447 1.69817Z" fill="white" fill-opacity="0.5"/>
<path opacity="0.43" d="M771.48 129.239C771.948 130.008 771.563 130.937 770.655 131.322C769.72 131.706 768.592 131.389 768.125 130.642C767.657 129.873 768.042 128.944 768.95 128.559C769.885 128.174 771.013 128.491 771.48 129.239Z" fill="white" fill-opacity="0.5"/>
<path opacity="0.4" d="M769.472 234.681C769.913 235.428 769.555 236.311 768.647 236.696C767.74 237.058 766.667 236.764 766.199 236.017C765.759 235.269 766.117 234.386 767.024 234.001C767.932 233.639 769.005 233.956 769.472 234.681Z" fill="white" fill-opacity="0.5"/>
<path opacity="0.37" d="M775.193 314.809C775.633 315.511 775.276 316.372 774.423 316.734C773.571 317.096 772.525 316.802 772.085 316.1C771.645 315.398 772.003 314.538 772.855 314.176C773.736 313.813 774.781 314.108 775.193 314.809Z" fill="white" fill-opacity="0.5"/>
<path opacity="0.3" d="M588.244 64.3476C588.629 64.9815 588.326 65.7514 587.556 66.0683C586.786 66.3853 585.851 66.1363 585.466 65.5023C585.081 64.8683 585.383 64.0985 586.153 63.7815C586.923 63.4645 587.859 63.7136 588.244 64.3476Z" fill="white" fill-opacity="0.5"/>
<path opacity="0.33" d="M609.257 127.654C609.67 128.333 609.34 129.125 608.515 129.465C607.69 129.805 606.727 129.533 606.314 128.854C605.902 128.174 606.232 127.382 607.057 127.042C607.882 126.725 608.872 126.997 609.257 127.654Z" fill="white" fill-opacity="0.5"/>
<path opacity="0.34" d="M621.497 216.93C621.91 217.609 621.58 218.447 620.754 218.786C619.929 219.126 618.911 218.854 618.499 218.175C618.086 217.496 618.416 216.658 619.242 216.318C620.067 215.979 621.084 216.25 621.497 216.93Z" fill="white" fill-opacity="0.5"/>
<path opacity="0.35" d="M633.572 415.474C633.984 416.176 633.654 417.014 632.801 417.353C631.949 417.693 630.931 417.421 630.518 416.72C630.106 416.018 630.436 415.18 631.289 414.84C632.141 414.501 633.159 414.795 633.572 415.474Z" fill="white" fill-opacity="0.5"/>
<path opacity="0.34" d="M656.758 508.554C657.171 509.233 656.841 510.071 656.015 510.411C655.19 510.75 654.173 510.479 653.76 509.799C653.347 509.12 653.678 508.282 654.503 507.943C655.328 507.603 656.345 507.875 656.758 508.554Z" fill="white" fill-opacity="0.5"/>
<path opacity="0.23" d="M537.332 277.587C537.663 278.153 537.388 278.832 536.727 279.104C536.04 279.375 535.215 279.149 534.885 278.606C534.555 278.039 534.83 277.36 535.49 277.089C536.177 276.817 537.002 277.043 537.332 277.587Z" fill="white" fill-opacity="0.5"/>
<path opacity="0.27" d="M520.004 275.707C520.362 276.319 520.087 277.066 519.344 277.36C518.602 277.655 517.694 277.428 517.336 276.817C516.979 276.205 517.254 275.458 517.997 275.164C518.739 274.87 519.619 275.119 520.004 275.707Z" fill="white" fill-opacity="0.5"/>
<path opacity="0.3" d="M503.804 317.142C504.189 317.776 503.887 318.568 503.089 318.885C502.319 319.202 501.356 318.953 500.971 318.296C500.586 317.662 500.889 316.87 501.686 316.553C502.456 316.236 503.392 316.485 503.804 317.142Z" fill="white" fill-opacity="0.5"/>
<path opacity="0.35" d="M459.879 483.014C460.292 483.716 459.962 484.554 459.109 484.894C458.256 485.233 457.239 484.962 456.826 484.26C456.413 483.558 456.744 482.72 457.596 482.38C458.421 482.041 459.439 482.312 459.879 483.014Z" fill="white" fill-opacity="0.5"/>
<path opacity="0.38" d="M440.213 596.766C440.653 597.49 440.296 598.351 439.416 598.713C438.535 599.075 437.49 598.781 437.05 598.057C436.61 597.332 436.968 596.472 437.848 596.109C438.728 595.747 439.773 596.041 440.213 596.766Z" fill="white" fill-opacity="0.5"/>
<path opacity="0.33" d="M296.776 423.218C297.189 423.897 296.859 424.689 296.033 425.029C295.208 425.369 294.246 425.097 293.833 424.418C293.42 423.738 293.751 422.946 294.576 422.606C295.373 422.267 296.363 422.538 296.776 423.218Z" fill="white" fill-opacity="0.5"/>
<path opacity="0.34" d="M248.78 513.852C249.193 514.532 248.863 515.369 248.038 515.709C247.213 516.049 246.195 515.777 245.782 515.098C245.37 514.418 245.7 513.581 246.525 513.241C247.35 512.901 248.368 513.173 248.78 513.852Z" fill="white" fill-opacity="0.5"/>
<path opacity="0.59" d="M991.601 597.468C992.178 598.419 991.711 599.596 990.555 600.072C989.4 600.547 987.97 600.162 987.392 599.211C986.815 598.26 987.282 597.083 988.438 596.608C989.62 596.132 991.023 596.517 991.601 597.468Z" fill="white" fill-opacity="0.5"/>
<path opacity="0.51" d="M975.428 541.928C975.95 542.766 975.538 543.784 974.52 544.192C973.502 544.622 972.265 544.283 971.77 543.445C971.275 542.607 971.66 541.588 972.677 541.181C973.668 540.75 974.905 541.09 975.428 541.928Z" fill="white" fill-opacity="0.5"/>
<path opacity="0.38" d="M970.092 463.95C970.532 464.675 970.174 465.558 969.294 465.92C968.414 466.282 967.341 465.988 966.901 465.263C966.461 464.539 966.819 463.656 967.699 463.293C968.579 462.931 969.652 463.225 970.092 463.95Z" fill="white" fill-opacity="0.5"/>
<path opacity="0.59" d="M1084.26 340.757C1084.87 341.73 1084.37 342.93 1083.19 343.429C1082.01 343.927 1080.55 343.519 1079.95 342.546C1079.34 341.572 1079.84 340.372 1081.02 339.874C1082.2 339.376 1083.66 339.783 1084.26 340.757Z" fill="white" fill-opacity="0.5"/>
<path opacity="0.59" d="M957.77 389.799C958.347 390.727 957.88 391.859 956.752 392.335C955.624 392.81 954.249 392.425 953.672 391.497C953.094 390.568 953.562 389.436 954.689 388.961C955.817 388.485 957.192 388.87 957.77 389.799Z" fill="white" fill-opacity="0.5"/>
<path opacity="0.55" d="M873.385 430.939C874.57 430.939 875.531 430.148 875.531 429.173C875.531 428.197 874.57 427.406 873.385 427.406C872.2 427.406 871.24 428.197 871.24 429.173C871.24 430.148 872.2 430.939 873.385 430.939Z" fill="white" fill-opacity="0.5"/>
<path opacity="0.46" d="M839.362 458.199C839.857 458.992 839.444 459.965 838.482 460.373C837.519 460.78 836.336 460.441 835.841 459.648C835.346 458.856 835.759 457.882 836.721 457.474C837.684 457.067 838.867 457.384 839.362 458.199Z" fill="white" fill-opacity="0.5"/>
<path opacity="0.38" d="M837.107 472.463C837.547 473.188 837.189 474.071 836.309 474.433C835.429 474.795 834.356 474.501 833.916 473.776C833.476 473.052 833.833 472.169 834.714 471.807C835.594 471.444 836.666 471.739 837.107 472.463Z" fill="white" fill-opacity="0.5"/>
<path opacity="0.59" d="M1009.04 1.4038C1009.62 2.37739 1009.15 3.55475 1007.97 4.03023C1006.78 4.5057 1005.35 4.1208 1004.78 3.1472C1004.2 2.17361 1004.67 0.996248 1005.85 0.520774C1007.03 0.045299 1008.46 0.430207 1009.04 1.4038Z" fill="white" fill-opacity="0.5"/>
<path opacity="0.59" d="M900.642 135.329C901.193 136.235 900.752 137.344 899.652 137.797C898.552 138.25 897.204 137.888 896.654 136.982C896.104 136.076 896.544 134.967 897.644 134.514C898.745 134.039 900.092 134.423 900.642 135.329Z" fill="white" fill-opacity="0.5"/>
<path opacity="0.55" d="M802.506 248.945C803.69 248.945 804.651 248.154 804.651 247.179C804.651 246.204 803.69 245.413 802.506 245.413C801.321 245.413 800.36 246.204 800.36 247.179C800.36 248.154 801.321 248.945 802.506 248.945Z" fill="white" fill-opacity="0.5"/>
<path opacity="0.45" d="M687.948 439.429C688.416 440.199 688.031 441.15 687.096 441.535C686.161 441.92 685.005 441.603 684.538 440.833C684.07 440.063 684.455 439.112 685.39 438.727C686.326 438.342 687.481 438.637 687.948 439.429Z" fill="white" fill-opacity="0.5"/>
<path opacity="0.41" d="M676.781 532.554C677.249 533.301 676.864 534.23 675.956 534.592C675.049 534.977 673.921 534.66 673.481 533.913C673.013 533.166 673.398 532.237 674.306 531.875C675.214 531.49 676.314 531.784 676.781 532.554Z" fill="white" fill-opacity="0.5"/>
<path opacity="0.49" d="M689.489 63.8721C689.984 64.6872 689.599 65.7061 688.581 66.1136C687.591 66.5212 686.353 66.2042 685.858 65.3665C685.363 64.5514 685.748 63.5325 686.766 63.1249C687.756 62.7174 688.966 63.0344 689.489 63.8721Z" fill="white" fill-opacity="0.5"/>
<path opacity="0.43" d="M473.576 548.154C474.044 548.924 473.659 549.853 472.751 550.237C471.816 550.622 470.688 550.305 470.221 549.558C469.753 548.788 470.138 547.86 471.046 547.475C471.981 547.09 473.109 547.385 473.576 548.154Z" fill="white" fill-opacity="0.5"/>
<path opacity="0.34" d="M551.552 26.3096C551.965 26.9889 551.635 27.8266 550.81 28.1662C549.985 28.5058 548.967 28.2341 548.554 27.5549C548.142 26.8756 548.472 26.0379 549.297 25.6983C550.122 25.336 551.14 25.6077 551.552 26.3096Z" fill="white" fill-opacity="0.5"/>
<path opacity="0.37" d="M543.108 109.133C543.549 109.857 543.191 110.718 542.311 111.08C541.431 111.442 540.385 111.148 539.945 110.423C539.505 109.699 539.863 108.838 540.743 108.476C541.623 108.114 542.668 108.408 543.108 109.133Z" fill="white" fill-opacity="0.5"/>
<path opacity="0.39" d="M509.745 198.273C510.185 198.997 509.828 199.881 508.948 200.243C508.067 200.605 506.995 200.311 506.555 199.586C506.115 198.862 506.472 197.979 507.352 197.616C508.232 197.254 509.305 197.548 509.745 198.273Z" fill="white" fill-opacity="0.5"/>
<path opacity="0.4" d="M451.463 286.756C451.903 287.504 451.545 288.387 450.638 288.772C449.73 289.134 448.657 288.839 448.19 288.092C447.75 287.345 448.107 286.462 449.015 286.077C449.895 285.715 450.995 286.009 451.463 286.756Z" fill="white" fill-opacity="0.5"/>
<path opacity="0.41" d="M376.347 372.682C376.815 373.429 376.43 374.357 375.522 374.719C374.614 375.104 373.487 374.787 373.047 374.04C372.579 373.293 372.964 372.365 373.872 372.002C374.779 371.617 375.88 371.934 376.347 372.682Z" fill="white" fill-opacity="0.5"/>
<path opacity="0.4" d="M295.538 459.173C295.978 459.92 295.621 460.803 294.713 461.188C293.806 461.55 292.733 461.256 292.265 460.509C291.825 459.761 292.183 458.878 293.09 458.493C293.998 458.131 295.098 458.425 295.538 459.173Z" fill="white" fill-opacity="0.5"/>
<path opacity="0.24" d="M496.35 190.145C496.708 190.711 496.405 191.412 495.718 191.707C495.03 192.001 494.177 191.752 493.82 191.186C493.462 190.62 493.765 189.918 494.453 189.624C495.168 189.329 496.02 189.556 496.35 190.145Z" fill="white" fill-opacity="0.5"/>
<path opacity="0.29" d="M454.873 179.435C455.258 180.069 454.956 180.839 454.186 181.156C453.416 181.473 452.48 181.224 452.095 180.59C451.71 179.956 452.013 179.186 452.783 178.869C453.553 178.552 454.488 178.801 454.873 179.435Z" fill="white" fill-opacity="0.5"/>
<path opacity="0.34" d="M404.32 192.612C404.732 193.292 404.402 194.129 403.577 194.469C402.752 194.809 401.734 194.537 401.322 193.858C400.909 193.179 401.239 192.341 402.064 192.001C402.917 191.662 403.907 191.933 404.32 192.612Z" fill="white" fill-opacity="0.5"/>
<path opacity="0.38" d="M337.923 220.213C338.363 220.937 338.006 221.798 337.125 222.16C336.245 222.522 335.2 222.228 334.76 221.503C334.32 220.779 334.678 219.918 335.558 219.556C336.438 219.216 337.483 219.488 337.923 220.213Z" fill="white" fill-opacity="0.5"/>
<path opacity="0.39" d="M258.71 254.628C259.15 255.353 258.792 256.236 257.912 256.598C257.032 256.96 255.959 256.666 255.519 255.941C255.079 255.217 255.436 254.334 256.317 253.971C257.197 253.609 258.269 253.903 258.71 254.628Z" fill="white" fill-opacity="0.5"/>
<path opacity="0.37" d="M182.191 294.206C182.631 294.93 182.274 295.791 181.394 296.153C180.514 296.515 179.468 296.221 179.028 295.496C178.588 294.772 178.946 293.911 179.826 293.549C180.679 293.187 181.751 293.481 182.191 294.206Z" fill="white" fill-opacity="0.5"/>
<path opacity="0.59" d="M932.08 603.4C932.823 604.623 932.218 606.094 930.733 606.706C929.247 607.317 927.46 606.819 926.717 605.596C925.974 604.373 926.579 602.902 928.065 602.29C929.55 601.702 931.338 602.177 932.08 603.4Z" fill="white" fill-opacity="0.5"/>
<path opacity="0.59" d="M799.783 564.185C800.443 565.249 799.92 566.562 798.6 567.105C797.307 567.649 795.712 567.219 795.052 566.132C794.392 565.068 794.914 563.754 796.235 563.211C797.527 562.668 799.123 563.12 799.783 564.185Z" fill="white" fill-opacity="0.5"/>
<path opacity="0.59" d="M723.072 563.324C723.65 564.275 723.182 565.452 722.027 565.928C720.872 566.403 719.441 566.019 718.864 565.068C718.286 564.117 718.754 562.939 719.909 562.464C721.064 561.988 722.467 562.351 723.072 563.324Z" fill="white" fill-opacity="0.5"/>
<path opacity="0.56" d="M684.648 593.913C685.17 594.774 684.758 595.838 683.685 596.291C682.64 596.721 681.347 596.381 680.797 595.498C680.275 594.638 680.687 593.574 681.76 593.121C682.832 592.69 684.125 593.03 684.648 593.913Z" fill="white" fill-opacity="0.5"/>
<path opacity="0.59" d="M1148.93 322.711C1149.59 323.798 1149.06 325.111 1147.74 325.655C1146.42 326.198 1144.83 325.768 1144.17 324.681C1143.51 323.594 1144.03 322.281 1145.35 321.738C1146.67 321.194 1148.27 321.625 1148.93 322.711Z" fill="white" fill-opacity="0.5"/>
<path opacity="0.59" d="M938.104 346.168C938.764 347.232 938.241 348.523 936.949 349.066C935.656 349.61 934.088 349.18 933.428 348.115C932.768 347.051 933.291 345.761 934.583 345.217C935.876 344.696 937.444 345.127 938.104 346.168Z" fill="white" fill-opacity="0.5"/>
<path opacity="0.59" d="M623.642 433.701C624.22 434.629 623.752 435.761 622.625 436.237C621.497 436.712 620.122 436.327 619.544 435.399C618.967 434.471 619.434 433.338 620.562 432.863C621.689 432.388 623.065 432.772 623.642 433.701Z" fill="white" fill-opacity="0.5"/>
<path opacity="0.56" d="M525.891 506.607C526.413 507.467 526.001 508.531 524.928 508.984C523.883 509.414 522.59 509.075 522.04 508.192C521.517 507.331 521.93 506.267 523.003 505.814C524.075 505.384 525.368 505.724 525.891 506.607Z" fill="white" fill-opacity="0.5"/>
<path opacity="0.52" d="M445.549 598.849C446.072 599.687 445.659 600.728 444.614 601.159C443.596 601.589 442.331 601.249 441.808 600.389C441.286 599.551 441.698 598.509 442.744 598.079C443.761 597.672 445.027 598.011 445.549 598.849Z" fill="white" fill-opacity="0.5"/>
<path opacity="0.59" d="M993.773 35.5021C994.406 36.5437 993.883 37.8116 992.646 38.3323C991.381 38.8531 989.84 38.4229 989.208 37.404C988.575 36.3625 989.098 35.0946 990.335 34.5738C991.601 34.0304 993.141 34.4606 993.773 35.5021Z" fill="white" fill-opacity="0.5"/>
<path opacity="0.59" d="M823.739 137.367C824.344 138.363 823.849 139.563 822.639 140.061C821.429 140.559 819.971 140.152 819.366 139.156C818.761 138.159 819.256 136.959 820.466 136.461C821.676 135.986 823.134 136.371 823.739 137.367Z" fill="white" fill-opacity="0.5"/>
<path opacity="0.49" d="M287.755 458.584C288.25 459.399 287.865 460.418 286.847 460.826C285.857 461.233 284.619 460.916 284.124 460.078C283.629 459.263 284.014 458.244 285.032 457.837C286.022 457.429 287.259 457.746 287.755 458.584Z" fill="white" fill-opacity="0.5"/>
<path opacity="0.59" d="M644.188 9.3057C644.738 10.2114 644.298 11.2982 643.198 11.7284C642.098 12.1812 640.778 11.8189 640.255 10.9133C639.705 10.0076 640.145 8.92079 641.245 8.4906C642.346 8.06041 643.638 8.42268 644.188 9.3057Z" fill="white" fill-opacity="0.5"/>
<path opacity="0.56" d="M554.55 118.846C555.073 119.706 554.66 120.771 553.588 121.223C552.543 121.654 551.25 121.314 550.7 120.431C550.15 119.548 550.59 118.506 551.662 118.054C552.735 117.623 554.028 117.986 554.55 118.846Z" fill="white" fill-opacity="0.5"/>
<path opacity="0.55" d="M444.284 199.926C444.807 200.786 444.394 201.85 443.321 202.303C442.276 202.733 440.983 202.394 440.433 201.511C439.911 200.65 440.323 199.586 441.396 199.133C442.469 198.703 443.761 199.043 444.284 199.926Z" fill="white" fill-opacity="0.5"/>
<path opacity="0.53" d="M319.11 254.402C319.632 255.239 319.22 256.281 318.175 256.711C317.157 257.141 315.892 256.802 315.369 255.941C314.847 255.104 315.259 254.062 316.304 253.632C317.35 253.202 318.615 253.541 319.11 254.402Z" fill="white" fill-opacity="0.5"/>
<path opacity="0.48" d="M197.842 286.621C198.337 287.436 197.924 288.409 196.961 288.817C195.971 289.224 194.789 288.885 194.293 288.092C193.798 287.277 194.211 286.304 195.174 285.896C196.136 285.489 197.346 285.806 197.842 286.621Z" fill="white" fill-opacity="0.5"/>
<path opacity="0.46" d="M444.862 58.3928C445.357 59.1853 444.944 60.1589 443.981 60.5664C443.019 60.974 441.836 60.6344 441.341 59.8419C440.846 59.0494 441.258 58.0758 442.221 57.6683C443.211 57.2834 444.394 57.6004 444.862 58.3928Z" fill="white" fill-opacity="0.5"/>
<path opacity="0.51" d="M363.117 94.144C363.64 94.9817 363.227 96.0006 362.21 96.4081C361.192 96.8383 359.954 96.4987 359.459 95.661C358.937 94.8232 359.349 93.8044 360.367 93.3968C361.385 92.9666 362.595 93.3062 363.117 94.144Z" fill="white" fill-opacity="0.5"/>
<path opacity="0.56" d="M250.293 108.589C251.478 108.589 252.438 107.799 252.438 106.823C252.438 105.848 251.478 105.057 250.293 105.057C249.108 105.057 248.148 105.848 248.148 106.823C248.148 107.799 249.108 108.589 250.293 108.589Z" fill="white" fill-opacity="0.5"/>
<path opacity="0.59" d="M121.378 94.1892C121.928 95.0949 121.488 96.1817 120.388 96.6119C119.288 97.0647 117.968 96.7024 117.445 95.7968C116.895 94.8911 117.335 93.8043 118.435 93.3741C119.508 92.9439 120.828 93.3062 121.378 94.1892Z" fill="white" fill-opacity="0.5"/>
<path opacity="0.59" d="M748.789 544.984C749.586 546.298 748.954 547.905 747.358 548.562C745.763 549.218 743.81 548.698 743.013 547.384C742.215 546.071 742.848 544.464 744.443 543.807C746.038 543.15 747.991 543.671 748.789 544.984Z" fill="white" fill-opacity="0.5"/>
<path opacity="0.59" d="M575.977 487.452C576.692 488.607 576.114 490.011 574.711 490.599C573.309 491.188 571.603 490.713 570.888 489.558C570.173 488.403 570.751 486.999 572.153 486.411C573.556 485.822 575.289 486.275 575.977 487.452Z" fill="white" fill-opacity="0.5"/>
<path opacity="0.59" d="M432.952 474.863C433.585 475.905 433.062 477.173 431.824 477.694C430.559 478.214 429.019 477.784 428.386 476.765C427.754 475.724 428.276 474.456 429.514 473.935C430.807 473.392 432.319 473.822 432.952 474.863Z" fill="white" fill-opacity="0.5"/>
<path opacity="0.59" d="M307.833 488.516C308.411 489.467 307.943 490.645 306.788 491.12C305.633 491.596 304.202 491.211 303.625 490.26C303.047 489.309 303.515 488.131 304.67 487.656C305.825 487.158 307.255 487.543 307.833 488.516Z" fill="white" fill-opacity="0.5"/>
<path opacity="0.57" d="M191.268 510.139C191.818 511.022 191.378 512.086 190.305 512.539C189.233 512.992 187.94 512.63 187.39 511.747C186.84 510.864 187.28 509.799 188.352 509.347C189.425 508.894 190.718 509.256 191.268 510.139Z" fill="white" fill-opacity="0.5"/>
<path opacity="0.59" d="M1157.76 345.987C1158.5 347.21 1157.89 348.681 1156.41 349.293C1154.92 349.904 1153.14 349.406 1152.39 348.183C1151.65 346.961 1152.26 345.489 1153.74 344.878C1155.2 344.289 1157.01 344.764 1157.76 345.987Z" fill="white" fill-opacity="0.5"/>
<path opacity="0.59" d="M899.322 314.153C900.037 315.33 899.46 316.779 898.03 317.368C896.599 317.957 894.839 317.481 894.124 316.304C893.409 315.126 893.986 313.677 895.417 313.089C896.847 312.5 898.607 312.975 899.322 314.153Z" fill="white" fill-opacity="0.5"/>
<path opacity="0.59" d="M143.877 308.56C144.427 309.466 143.987 310.575 142.887 311.028C141.787 311.481 140.439 311.119 139.889 310.213C139.339 309.308 139.779 308.198 140.879 307.745C142.007 307.292 143.327 307.655 143.877 308.56Z" fill="white" fill-opacity="0.5"/>
<path opacity="0.59" d="M1085.69 10.2567C1086.41 11.4114 1085.83 12.8152 1084.43 13.4039C1083.03 13.9926 1081.32 13.5171 1080.61 12.3624C1079.89 11.2077 1080.47 9.80387 1081.87 9.21519C1083.27 8.64915 1085.01 9.10198 1085.69 10.2567Z" fill="white" fill-opacity="0.5"/>
<path opacity="0.59" d="M862.081 60.4079C862.768 61.54 862.218 62.8985 860.843 63.4646C859.468 64.0306 857.818 63.5778 857.13 62.4457C856.442 61.3136 856.992 59.9551 858.368 59.3891C859.743 58.823 861.393 59.2759 862.081 60.4079Z" fill="white" fill-opacity="0.5"/>
<path opacity="0.59" d="M665.972 110.265C666.632 111.352 666.11 112.665 664.789 113.208C663.469 113.752 661.874 113.321 661.214 112.235C660.554 111.148 661.076 109.835 662.397 109.291C663.717 108.748 665.312 109.178 665.972 110.265Z" fill="white" fill-opacity="0.5"/>
<path opacity="0.59" d="M485.871 144.069C486.531 145.133 486.009 146.424 484.716 146.967C483.423 147.51 481.855 147.08 481.195 146.016C480.535 144.952 481.058 143.661 482.35 143.118C483.643 142.574 485.211 143.005 485.871 144.069Z" fill="white" fill-opacity="0.5"/>
<path opacity="0.59" d="M310.528 149.865C311.161 150.907 310.666 152.197 309.373 152.718C308.108 153.239 306.54 152.831 305.908 151.767C305.275 150.725 305.77 149.435 307.063 148.914C308.328 148.393 309.896 148.824 310.528 149.865Z" fill="white" fill-opacity="0.5"/>
<path opacity="0.59" d="M138.184 122.174C138.816 123.216 138.294 124.484 137.056 125.005C135.791 125.525 134.251 125.095 133.618 124.076C132.985 123.035 133.508 121.767 134.746 121.246C136.011 120.725 137.551 121.133 138.184 122.174Z" fill="white" fill-opacity="0.5"/>
<path opacity="0.59" d="M22.994 574.985C23.5441 575.89 23.104 577 22.0038 577.453C20.9036 577.905 19.5559 577.543 19.0058 576.638C18.4557 575.732 18.8958 574.622 19.996 574.17C21.0962 573.717 22.4439 574.079 22.994 574.985Z" fill="white" fill-opacity="0.5"/>
<path opacity="0.59" d="M237.806 596.721C238.714 598.215 237.971 600.049 236.156 600.819C234.34 601.566 232.112 600.955 231.177 599.46C230.27 597.966 231.012 596.132 232.828 595.362C234.67 594.615 236.898 595.226 237.806 596.721Z" fill="white" fill-opacity="0.5"/>
<path opacity="0.59" d="M241.437 510.23C242.234 511.52 241.602 513.082 240.034 513.739C238.466 514.396 236.568 513.875 235.771 512.584C234.973 511.294 235.606 509.731 237.173 509.075C238.769 508.418 240.666 508.939 241.437 510.23Z" fill="white" fill-opacity="0.5"/>
<path opacity="0.59" d="M175.26 445.633C175.948 446.765 175.398 448.146 174.022 448.712C172.647 449.278 170.969 448.825 170.282 447.693C169.594 446.561 170.144 445.18 171.519 444.614C172.895 444.048 174.573 444.501 175.26 445.633Z" fill="white" fill-opacity="0.5"/>
<path opacity="0.59" d="M86.7499 391.882C87.3551 392.901 86.86 394.123 85.6498 394.644C84.412 395.142 82.9268 394.734 82.2942 393.738C81.6616 392.742 82.1842 391.497 83.3944 390.976C84.6321 390.455 86.1173 390.863 86.7499 391.882Z" fill="white" fill-opacity="0.5"/>
<path opacity="0.59" d="M4.29081 335.844C4.84091 336.772 4.40083 337.881 3.27314 338.334C2.14544 338.787 0.797712 338.425 0.247617 337.496C-0.302477 336.568 0.137598 335.459 1.26529 335.006C2.36548 334.553 3.71321 334.938 4.29081 335.844Z" fill="white" fill-opacity="0.5"/>
<path opacity="0.59" d="M734.899 507.671C735.834 509.211 735.091 511.09 733.221 511.86C731.351 512.63 729.068 512.018 728.133 510.479C727.198 508.939 727.94 507.06 729.811 506.29C731.681 505.497 733.964 506.131 734.899 507.671Z" fill="white" fill-opacity="0.5"/>
<path opacity="0.59" d="M355.719 307.428C356.489 308.696 355.856 310.259 354.316 310.892C352.776 311.526 350.878 311.006 350.108 309.738C349.338 308.47 349.97 306.908 351.51 306.274C353.078 305.64 354.949 306.16 355.719 307.428Z" fill="white" fill-opacity="0.5"/>
<path opacity="0.59" d="M184.034 235.405C184.749 236.605 184.172 238.054 182.714 238.643C181.256 239.232 179.496 238.756 178.781 237.556C178.066 236.356 178.643 234.907 180.101 234.318C181.531 233.73 183.292 234.205 184.034 235.405Z" fill="white" fill-opacity="0.5"/>
<path opacity="0.59" d="M25.3869 154.099C26.102 155.276 25.5244 156.703 24.0942 157.269C22.6639 157.858 20.9311 157.382 20.2435 156.205C19.5284 155.027 20.106 153.601 21.5362 153.035C22.9665 152.446 24.6718 152.922 25.3869 154.099Z" fill="white" fill-opacity="0.5"/>
<path opacity="0.59" d="M1078.49 271.994C1079.31 273.353 1078.65 274.983 1077 275.662C1075.35 276.341 1073.37 275.798 1072.55 274.439C1071.72 273.081 1072.38 271.451 1074.03 270.771C1075.65 270.092 1077.66 270.636 1078.49 271.994Z" fill="white" fill-opacity="0.5"/>
<path opacity="0.59" d="M613.823 146.582C614.648 147.918 613.988 149.548 612.365 150.227C610.743 150.907 608.762 150.363 607.937 149.027C607.112 147.691 607.772 146.061 609.395 145.382C611.045 144.703 613.025 145.246 613.823 146.582Z" fill="white" fill-opacity="0.5"/>
<path opacity="0.59" d="M424.343 89.7062C425.168 91.0874 424.508 92.7402 422.83 93.4421C421.152 94.1213 419.145 93.5779 418.292 92.1968C417.467 90.8157 418.127 89.1628 419.805 88.4609C421.482 87.759 423.518 88.3251 424.343 89.7062Z" fill="white" fill-opacity="0.5"/>
<path opacity="0.59" d="M256.757 12.1132C257.664 13.6076 256.922 15.4416 255.106 16.2114C253.291 16.9586 251.063 16.3472 250.128 14.8529C249.22 13.3585 249.963 11.5246 251.778 10.7547C253.621 10.0076 255.822 10.6189 256.757 12.1132Z" fill="white" fill-opacity="0.5"/>
</g>
</g>
<defs>
<radialGradient id="paint0_radial" cx="0" cy="0" r="1" gradientUnits="userSpaceOnUse" gradientTransform="translate(291.071 294.699) scale(406.158 334.346)">
<stop offset="0.1436" stop-color="#1C1C1C"/>
<stop offset="0.2152" stop-color="#262626"/>
<stop offset="0.3384" stop-color="#424242"/>
<stop offset="0.4984" stop-color="#6F6F6F"/>
<stop offset="0.6888" stop-color="#ADADAD"/>
<stop offset="0.903" stop-color="#FCFCFC"/>
<stop offset="0.9109" stop-color="white"/>
</radialGradient>
<clipPath id="clip0">
<rect width="1192" height="613" fill="white"/>
</clipPath>
</defs>
</svg>
