<svg xmlns="http://www.w3.org/2000/svg" viewBox="0 0 127.17 124.54"><defs><style>.cls-1{fill:#fff;}</style></defs><g id="Layer_2" data-name="Layer 2"><g id="Layer_1-2" data-name="Layer 1"><path class="cls-1" d="M63.58,0A63.88,63.88,0,0,0,43.49,124.41c3.18.59,4.34-1.38,4.34-3.08,0-1.52-.06-5.53-.09-10.85-17.68,3.85-21.42-8.56-21.42-8.56-2.88-7.38-7-9.34-7-9.34-5.78-4,.42-3.88.42-3.88,6.39.45,9.74,6.58,9.74,6.58,5.68,9.75,14.89,6.94,18.51,5.3.57-4.12,2.22-6.94,4-8.54C37.86,90.43,23,85,23,60.5a24.76,24.76,0,0,1,6.55-17.14c-.66-1.61-2.84-8.1.62-16.89,0,0,5.34-1.71,17.48,6.55a60,60,0,0,1,31.84,0C91.65,24.77,97,26.48,97,26.48c3.47,8.79,1.29,15.28.64,16.89a24.74,24.74,0,0,1,6.53,17.14c0,24.52-14.86,29.91-29,31.5,2.28,2,4.32,5.86,4.32,11.81,0,8.54-.08,15.42-.08,17.51,0,1.71,1.14,3.7,4.37,3.07A63.88,63.88,0,0,0,63.58,0Z"/><path d="M82.6,124.54h-38a3,3,0,0,0,3.25-3.18c0-1.52-.06-5.53-.09-10.86-17.69,3.85-21.42-8.56-21.42-8.56-2.88-7.37-7-9.34-7-9.34-5.79-4,.42-3.88.42-3.88,6.39.45,9.74,6.58,9.74,6.58,5.68,9.75,14.89,6.94,18.51,5.31.57-4.13,2.21-7,4-8.54C37.89,90.46,23,85,23,60.53a24.73,24.73,0,0,1,6.56-17.14c-.66-1.62-2.84-8.11.62-16.9,0,0,5.33-1.71,17.48,6.55a59.88,59.88,0,0,1,31.84,0C91.66,24.79,97,26.5,97,26.5c3.46,8.8,1.29,15.28.63,16.9a24.66,24.66,0,0,1,6.54,17.13c0,24.52-14.86,29.92-29,31.5,2.27,2,4.31,5.87,4.31,11.81,0,8.55-.08,15.43-.08,17.52A3,3,0,0,0,82.6,124.54Z"/></g></g></svg>