<svg xmlns="http://www.w3.org/2000/svg" viewBox="0 0 128.78 128.78"><defs><style>.cls-1{fill:#fff;}</style></defs><g id="Layer_2" data-name="Layer 2"><g id="Layer_1-2" data-name="Layer 1"><rect x="15.01" y="24.74" width="101.95" height="76.98" rx="9.98"/><path class="cls-1" d="M64.39,0a64.39,64.39,0,1,0,64.39,64.39A64.39,64.39,0,0,0,64.39,0ZM45.68,97.34H30V50.16H45.68ZM37.84,43.72h-.1c-5.27,0-8.67-3.62-8.67-8.15s3.51-8.15,8.87-8.15,8.67,3.52,8.77,8.15S43.31,43.72,37.84,43.72Zm64.39,53.62H86.55V72.1c0-6.34-2.27-10.67-8-10.67a8.57,8.57,0,0,0-8,5.74A10.58,10.58,0,0,0,70,71V97.34H54.36s.2-42.75,0-47.18H70v6.68c2.08-3.21,5.81-7.79,14.13-7.79,10.32,0,18.06,6.75,18.06,21.24Z"/></g></g></svg>